<svg id="Capa_1" data-name="Capa 1" xmlns="http://www.w3.org/2000/svg" viewBox="0 0 274.46 145.87"><defs><style>.cls-1{fill:#443917;}.cls-2{fill:#9fc83a;}.cls-3{fill:#6e983f;}.cls-4{fill:#f3e909;}.cls-5{fill:#dd8484;}.cls-6{fill:#fefefe;}</style></defs><path class="cls-1" d="M261.32,144v8.81h-4.41v4.45h-4.45v4.4h-8.78V166h-4.46v4.45h-8.87v4.45h-8.88v4.44H208.21v4.35h-4.38v4.45h8.71v4.44H225.8v13.24H203.75v-4.29h-4.4v4.29H181.66v4.41H163.92V206h-4.45v4.27H137.36v-13.2h8.74V192.7h-8.73v-4.41H110.73v4.33h-4.51V188.3h-4.38v8.75H97.43v-4.41H93l0-4.39h4.43v-4.42h4.43v-4.43l4.4,0,0,0v4.35h66.33v-4.4h-4.34v-4.37h-8.82v-4.47h-4.33v-8.73h4.35v4.37h4.42v4.41h8.84V175h4.42v4.42h4.44l0,0v4.45H186v0l0,4.44H164v4.43h13.24V197h4.44v-4.39H186V188.2h4.46q0,4.41,0,8.84h-4.32v4.35h8.78v-4.32l13.27,0v4.39h13.18v-4.35H217l-8.85,0v-4.5h-8.89v-4.39H194.9v-4.4h-4.45v-4.43H186v-4.42h-4.43c0-1.48,0-2.95,0-4.43h8.93V175h4.38v4.25h8.91v-4.34H217v-4.43H226V166h8.81V161.6h4.48v-4.42h8.81v-4.43h4.47v-4.42h4.38v-4.39h4.42ZM141.79,205.8H155v-4.21h13.33v4.21H177v-4.4h-4.35V197H159.4V188.3h-8.85v13.22h-8.76Z" transform="translate(-4.5 -68.8)"/><path class="cls-1" d="M88.58,183.78v-4.35H75.32v4.32H62v4.4H48.79v4.38H31.06v-4.29H22.17v-4.45H17.72V179.4H13.37V175H8.91v-8.88H4.5V148.4H8.84v-8.87h4.4v-8.78h4.4v-4.44H22.1v-8.88h4.45V113H31v-4.35h4.4v-4.44h4.46V99.74h4.45V95.29h4.45v-4.4h4.36v-4.4H62V82.08H79.69v4.33h4.45v8.82H88.5V104H93V99.7h4.48l0,17.7H93v-4.47H88.52v-4.44H84.09V99.64H79.65V90.83H75.26V86.5H66.4v4.39H57.53v4.43H53.1v4.43H48.66v4.44H44.22v4.43H39.83V113H35.39v4.44H31v4.43H26.52v8.86H22.08v4.43H17.64V144H13.26v8.85H9v8.86h4.37v8.82H17.7v4.43h4.43v4.49h4.49v4.27h31v-4.41H70.9v-4.37h8.86v-4.48h4.43v-4.27h8.69v4.4H88.67v4.36h8.78c0,1.48,0,3,0,4.42l0,0H93v4.45l0,0-4.43,0Z" transform="translate(-4.5 -68.8)"/><path class="cls-1" d="M199.3,121.83h4.39v4.39h4.46v4.45h4.4V135h13.26v-4.27h8.88v-4.45h4.45v-4.45h4.41v-4.35h4.38V113H230.36v-4.45h-4.45v-4.45h-4.4V82h4.29v-4.4h4.45V73.19h8.89V68.8h17.74v4.31h8.78v4.4h4.45V82h4.45v13.3H279v22.1h-4.27V130.6h-4.46v8.93h-4.49V126.2h4.44V113h4.33V99.67H270.2V86.37h-4.52V81.94h-4.39V77.56h-8.86V73.25h-8.86V77.6h-8.85V82h-4.44v4.43H226V99.73h4.39v4.42h4.37v4.28h13.38v-4.34h4.42V90.88h4.35v17.69h-4.43v13.29H248v4.43h-4.44v4.44h-4.44v4.44h-8.87v4.28H208.13v-4.39h-4.44v-4.43h-4.38v-8.81Z" transform="translate(-4.5 -68.8)"/><path class="cls-1" d="M97.44,99.7V95.32h4.39V90.88h8.88V86.49H155v4.35h13.3v4.39h4.35v4.4h8.87v4.44H186v4.49h-8.9v-4.31h-4.44v4.31h-4.38V99.64h-4.46V95.35H150.55v8.79h-4.4V90.93h-8.87v17.62h-4.43V90.94H115.16v4.34h-4.49v26.55h-4.39V99.7H97.44Z" transform="translate(-4.5 -68.8)"/><path class="cls-1" d="M110.72,205.9h-8.81v8.77H79.76v-4.3h-31v-8.85h4.31v-4.47H75.28v4.47H57.67v4.35H62l22.1.06v4.3H97.34v-4.33H93v-4.45H84.18v-4.36h4.43v-4.42l4.39,0h0V197h4.43v4.47h13.29v4.37Z" transform="translate(-4.5 -68.8)"/><path class="cls-1" d="M110.73,192.62h8.8V197h8.83v13.24H110.72V205.9h13.19v-4.47h-8.83V197h-4.36v-4.38Z" transform="translate(-4.5 -68.8)"/><path class="cls-1" d="M186,108.56h4.38v4.36h4.44v4.44h4.47v4.47h-4.48v4.43h-4.39v-8.84h-8.85v-4.48H186v-4.38Z" transform="translate(-4.5 -68.8)"/><path class="cls-1" d="M84.15,188.2v-4.42h4.42c0,1.47,0,2.95,0,4.42l0,0-4.43,0Z" transform="translate(-4.5 -68.8)"/><path class="cls-1" d="M79.72,192.63V188.2h4.42l0,4.43,0,0-4.43,0Z" transform="translate(-4.5 -68.8)"/><path class="cls-1" d="M265.75,139.53V144h-4.44v-4.42h4.44Z" transform="translate(-4.5 -68.8)"/><path class="cls-1" d="M75.29,197.05v-4.42h4.42c0,1.47,0,2.95,0,4.42l0,0-4.43,0Z" transform="translate(-4.5 -68.8)"/><path class="cls-2" d="M186,108.55v4.38h-4.44v4.48h-4.32v8.85h4.34l0,0v4.34h8.87v-4.34l0,0h4.39v-4.43h4.49v8.81h4.38v4.43h4.44v4.39h22.11v-4.28h8.87v-4.44h4.44v-4.44H248v-4.43h4.44V108.57h4.43v-22H248v8.8h-4.49v4.43h-4.39v4.39h-8.78V99.73H226V86.46h4.33V82h4.44V77.6h8.85V73.25h8.86v4.31h8.86v4.38h4.39v4.43h4.52v13.3l0,13.31h-4.51v8.91h-4.4v13.24h-4.4v4.4h-4.45V144H248v4.39h-4.4v4.4h-8.83v4.44h-4.5v4.45H217v4.4h-8.83v4.3h-13.3V166H181.63c0-1-.08-2.09,0-3.14s-.19-1.34-1.2-1.27-2.18,0-3.27.05H168.4v4.39h4.33v4.43h-8.84v-4.41h-4.42v-4.37h-4.35v8.73h4.33v4.47H115.09v-4.47h-8.83v-8.71H79.67v4.41H75.23v4.4H66.4v4.38H22.14c0-1.18.06-2.37,0-3.55a1.26,1.26,0,0,0-.85-.84c-1.17-.1-2.36,0-3.55,0h0v-4.45H13.32v-4.37H9v-8.86h4.31V144h4.38v-8.81h4.44v-4.43h4.44v-8.86H31v-4.43h4.43V113h4.44v-4.38h4.39v-4.43h4.44V99.75H53.1V95.32h4.43V90.89H66.4V86.5h8.86v4.33h4.39v8.81h4.44v8.85h4.43v4.44H93v4.47h4.49l0,0v4.45h4.45l0,0v4.33h4.44v-4.33l0,0h4.39V95.28h4.49v26.55h4.45l0,0v4.34h8.86v-4.34l0,0h4.45v-13.3l0,0h4.43V90.93h8.87v13.21l0,0h-4.35v22.13h4.35l0,0v4.34h4.44v-4.34l0,0H155v-4.44l0,0h4.45v-4.45l0,0h4.44V113h4.44v-4.43h4.38v-4.31h4.44v4.31ZM62,135.1H57.65V144H62v4.3h8.85v-4.35h4.33v-8.84H70.84v-4.31H62v4.35Zm-31,0H26.64V144H31v4.3h8.86v-4.35h4.33v-8.84H39.83v-4.31H31v4.35Zm48.75,22h8.71v-4.2H79.77Zm-53.26-4.2H17.8v4.2h8.71Z" transform="translate(-4.5 -68.8)"/><path class="cls-3" d="M22.13,174.93H66.4v-4.38h8.83v-4.4h4.44v-4.41h26.59v8.71h8.83v4.47h53.18v4.37h4.34v4.4H106.28v-4.35h4.33V175H106.3v4.34l-4.4,0-.07-.07,0-4.4v-8.73H97.43v8.76l0,0H88.67v-4.36h4.21v-4.4H84.19v4.27H79.76v4.48H70.9v4.37H57.62v4.41h-31v-4.27H22.13Z" transform="translate(-4.5 -68.8)"/><path class="cls-3" d="M181.63,166h13.21v4.37h13.3v-4.3H217v-4.4h13.26v-4.45h4.5v-4.44h8.83v-4.4H248V144h4.45v-4.5h4.45v-4.4h4.4V121.89h4.4V113h4.52V126.2h-4.44v13.32h-4.43v4.42H256.9v4.39h-4.38v4.42h-4.47v4.43h-8.81v4.42h-4.48V166H226v4.42H217v4.43H203.8v4.34h-8.91V175h-4.38v-4.48h-8.93l0,0c0-1.47,0-2.94,0-4.4Z" transform="translate(-4.5 -68.8)"/><path class="cls-3" d="M141.79,205.8v-4.28h8.76V188.3h8.85V197h13.28v4.38H177v4.4h-8.67v-4.21H155v4.21Z" transform="translate(-4.5 -68.8)"/><path class="cls-3" d="M110.72,192.63V197h4.36v4.41h8.83v4.47H110.73v-4.37H97.44v-4.47h4.4V188.3h4.38v4.33Z" transform="translate(-4.5 -68.8)"/><path class="cls-2" d="M190.44,197q0-4.42,0-8.84h0l4.46,0h4.36v4.39h8.89v4.5l0,0-13.27,0Z" transform="translate(-4.5 -68.8)"/><path class="cls-3" d="M190.44,197l4.46,0v4.32h-8.78V197Z" transform="translate(-4.5 -68.8)"/><path class="cls-2" d="M217,201.43h-8.83V197l0,0,8.85,0Z" transform="translate(-4.5 -68.8)"/><path class="cls-2" d="M177.15,175h-4.42V170.5h0l4.39,0Z" transform="translate(-4.5 -68.8)"/><path class="cls-3" d="M177.15,175l0-4.41.07-.08,4.41,0,0,0c0,1.48,0,2.95,0,4.43h-4.45Z" transform="translate(-4.5 -68.8)"/><path class="cls-2" d="M177.14,174.93h4.45c0,1.48,0,3,0,4.45h-4.44Z" transform="translate(-4.5 -68.8)"/><path class="cls-3" d="M181.58,179.37c0-1.48,0-3,0-4.45H186v4.42h-4.46Z" transform="translate(-4.5 -68.8)"/><path class="cls-3" d="M101.9,179.38v4.43H97.47l-.07-.07,0-4.42,0,0,4.42,0Z" transform="translate(-4.5 -68.8)"/><path class="cls-2" d="M181.56,179.35H186c0,1.49,0,3,0,4.46h-4.44Z" transform="translate(-4.5 -68.8)"/><path class="cls-3" d="M186,183.8c0-1.49,0-3,0-4.46h4.43v4.43H186Z" transform="translate(-4.5 -68.8)"/><path class="cls-3" d="M97.47,183.81v4.42H93l-.07-.07,0-4.41,0,0,4.42,0Z" transform="translate(-4.5 -68.8)"/><path class="cls-2" d="M186,183.78h4.46c0,1.47,0,2.95,0,4.43H186l0,0C186,186.74,186,185.26,186,183.78Z" transform="translate(-4.5 -68.8)"/><path class="cls-3" d="M190.44,188.2c0-1.48,0-3,0-4.43h4.45v4.4Z" transform="translate(-4.5 -68.8)"/><path class="cls-3" d="M93,192.62l-4.39,0-.07-.07,0-4.42,0,0,4.42,0,.07.07C93,189.69,93,191.16,93,192.62Z" transform="translate(-4.5 -68.8)"/><path class="cls-3" d="M217,201.43v-4.35h4.35v4.35Z" transform="translate(-4.5 -68.8)"/><path class="cls-4" d="M97.43,99.7h8.85v22.13l0,0h-4.44l0,0v-4.45H97.43l0,0Q97.44,108.55,97.43,99.7Z" transform="translate(-4.5 -68.8)"/><path class="cls-2" d="M101.83,179.31l-4.42,0c0-1.47,0-2.94,0-4.42l0,0,4.43,0Z" transform="translate(-4.5 -68.8)"/><path class="cls-2" d="M97.4,183.74l-4.42,0v-4.45h4.45Z" transform="translate(-4.5 -68.8)"/><path class="cls-2" d="M93,188.16l-4.42,0c0-1.47,0-2.95,0-4.42l4.43,0Z" transform="translate(-4.5 -68.8)"/><path class="cls-3" d="M13.32,166.05h4.39v4.45H13.32Z" transform="translate(-4.5 -68.8)"/><path class="cls-3" d="M17.7,170.5c1.19,0,2.38-.06,3.55,0a1.26,1.26,0,0,1,.85.84c.1,1.18,0,2.37,0,3.55H17.7Z" transform="translate(-4.5 -68.8)"/><path class="cls-3" d="M234.71,104.15h4.41V99.76h4.39V95.33H248v-8.8h8.86v4.35h-4.35v13.21h-4.42v4.34H234.71Z" transform="translate(-4.5 -68.8)"/><path class="cls-3" d="M270.17,113l0-13.31h4.31V113Z" transform="translate(-4.5 -68.8)"/><path class="cls-4" d="M146.15,104.14h4.4V95.35h13.28v4.29h4.46v8.89h-4.44V113h-4.44v4.44l0,0H155v4.45l0,0h-4.45v4.44l0,0h-4.44l0,0V104.12Z" transform="translate(-4.5 -68.8)"/><path class="cls-4" d="M115.16,95.28V90.94h17.69v17.61l0,0h-4.45v13.3l0,0h-8.86l0,0V95.26h-4.45Z" transform="translate(-4.5 -68.8)"/><path class="cls-2" d="M75.28,197l4.43,0c0,1.41-.45,3.42.28,4.07s2.74.29,4.19.35H93v4.45l-8.89,0L62,205.86v-4.35H75.28Z" transform="translate(-4.5 -68.8)"/><path class="cls-3" d="M84.12,205.92l8.89,0h4.33v4.33H84.12Z" transform="translate(-4.5 -68.8)"/><path class="cls-3" d="M88.61,192.66v4.42H84.18l-.07-.07,0-4.41,0,0,4.42,0Z" transform="translate(-4.5 -68.8)"/><path class="cls-3" d="M84.18,201.44c-1.45-.06-3.36.4-4.19-.35s-.24-2.66-.28-4.07l0,0,4.42,0,.07.07Z" transform="translate(-4.5 -68.8)"/><path class="cls-3" d="M62,201.51v4.35H57.67v-4.35Z" transform="translate(-4.5 -68.8)"/><path class="cls-4" d="M181.58,117.41h8.85v8.84l0,0h-8.87l0,0V117.4Z" transform="translate(-4.5 -68.8)"/><path class="cls-2" d="M88.54,192.59l-4.42,0c0-1.48,0-3,0-4.43l4.43,0Z" transform="translate(-4.5 -68.8)"/><path class="cls-2" d="M84.11,197l-4.42,0c0-1.47,0-2.95,0-4.42l4.43,0Z" transform="translate(-4.5 -68.8)"/><path class="cls-1" d="M31,135.12v-4.35h8.83v4.31h4.38v8.84H39.88v4.35H31V144H26.64V135.1H31v4.34h4.32v-4.32Z" transform="translate(-4.5 -68.8)"/><path class="cls-1" d="M62,135.12v-4.35h8.83v4.31h4.37v8.84H70.88v4.35H62V144H57.65V135.1H62v4.34h4.32v-4.32Z" transform="translate(-4.5 -68.8)"/><path class="cls-1" d="M115.15,95.26h4.45v26.57h-4.45Z" transform="translate(-4.5 -68.8)"/><path class="cls-1" d="M146.17,104.12v22.13h-4.35V104.12Z" transform="translate(-4.5 -68.8)"/><path class="cls-1" d="M128.42,121.83v-13.3h4.45v13.3Z" transform="translate(-4.5 -68.8)"/><path class="cls-5" d="M79.77,157.11v-4.2h8.71v4.2Z" transform="translate(-4.5 -68.8)"/><path class="cls-5" d="M26.51,152.91v4.2H17.8v-4.2Z" transform="translate(-4.5 -68.8)"/><path class="cls-1" d="M181.6,117.4v8.85h-4.34V117.4Z" transform="translate(-4.5 -68.8)"/><path class="cls-1" d="M119.58,121.81h8.86v4.34h-8.86Z" transform="translate(-4.5 -68.8)"/><path class="cls-1" d="M181.58,126.23h8.87v4.34h-8.87Z" transform="translate(-4.5 -68.8)"/><path class="cls-1" d="M163.86,113v-4.45h4.44V113Z" transform="translate(-4.5 -68.8)"/><path class="cls-1" d="M159.43,117.4V113h4.44v4.44Z" transform="translate(-4.5 -68.8)"/><path class="cls-1" d="M97.43,117.38h4.45v4.45H97.43Z" transform="translate(-4.5 -68.8)"/><path class="cls-1" d="M155,121.83v-4.45h4.45v4.45Z" transform="translate(-4.5 -68.8)"/><path class="cls-1" d="M101.86,121.81h4.44v4.33h-4.44Z" transform="translate(-4.5 -68.8)"/><path class="cls-3" d="M177.12,170.54l-4.39,0v-4.43h4.44l0,0,0,4.4Z" transform="translate(-4.5 -68.8)"/><path class="cls-3" d="M177.13,161.68c1.09,0,2.19,0,3.27-.05s1.25.37,1.2,1.27,0,2.09,0,3.14l-.08.07-4.4-.05,0,0C177.16,164.61,177.14,163.14,177.13,161.68Z" transform="translate(-4.5 -68.8)"/><path class="cls-1" d="M177.13,161.68c0,1.46,0,2.93,0,4.4h-4.43c0-1.47,0-2.93,0-4.39Z" transform="translate(-4.5 -68.8)"/><path class="cls-3" d="M172.76,161.68c0,1.46,0,2.92,0,4.39H168.4v-4.39Z" transform="translate(-4.5 -68.8)"/><path class="cls-1" d="M146.15,126.23h4.44v4.34h-4.44Z" transform="translate(-4.5 -68.8)"/><path class="cls-1" d="M150.57,126.25v-4.44H155v4.44Z" transform="translate(-4.5 -68.8)"/><path class="cls-1" d="M101.86,174.91l-4.43,0v-8.76h4.43Z" transform="translate(-4.5 -68.8)"/><path class="cls-1" d="M106.3,179.36V175h4.31v4.32h-4.33Z" transform="translate(-4.5 -68.8)"/><path class="cls-1" d="M177.15,166.06l4.4.05c0,1.46,0,2.93,0,4.4l-4.41,0C177.18,169,177.16,167.53,177.15,166.06Z" transform="translate(-4.5 -68.8)"/><path class="cls-6" d="M31,135.12h4.34v4.32H31V135.1Z" transform="translate(-4.5 -68.8)"/><path class="cls-6" d="M62,135.12h4.34v4.32H62V135.1Z" transform="translate(-4.5 -68.8)"/></svg>