<svg id="Capa_1" data-name="Capa 1" xmlns="http://www.w3.org/2000/svg" viewBox="0 0 277.61 148.26"><defs><style>.cls-1{fill:#453a18;}.cls-2{fill:#9fc83a;}.cls-3{fill:#6e983f;}.cls-4{fill:#6d983e;}.cls-5{fill:#f3e909;}.cls-6{fill:#f2e809;}.cls-7{fill:#6d973e;}.cls-8{fill:#6d963e;}.cls-9{fill:#6e983e;}.cls-10{fill:#f1cc11;}.cls-11{fill:#f0cb11;}.cls-12{fill:#6e973e;}.cls-13{fill:#db8483;}.cls-14{fill:#443917;}.cls-15{fill:#dc8483;}</style></defs><path class="cls-1" d="M90.22,108.88c.84-.72,1.59-1.4,2.36-2,7.63-6.43,16.51-10.3,26.11-12.66a68.86,68.86,0,0,1,16.29-2c13.88-.07,26.5,4.12,38.17,11.46a126.23,126.23,0,0,1,20.28,16.45c4,3.85,7.84,7.86,11.56,12a84.41,84.41,0,0,1,5.2,7.06c.13.18.31.41.49.44a93.62,93.62,0,0,0,10.23,1.15c6.68.07,12.54-2.49,17.83-6.42a29.78,29.78,0,0,0,9.83-13.4,12.22,12.22,0,0,0,.37-1.35,52,52,0,0,1-6.25,0c-6.83-.84-12.87-3.48-17.17-9-5.45-7-5.88-17.31,2.38-24.94A34,34,0,0,1,246.65,77a30.17,30.17,0,0,1,14.52,1.12c5.78,2,9.91,6.12,13.15,11.15a38.55,38.55,0,0,1,5.82,17c2.08,19.61-4.07,36.61-16.67,51.49C254,169,242.32,177.13,229.15,183.3a132.48,132.48,0,0,1-24.29,8.87,4.29,4.29,0,0,0-.54.19c2,1.65,4,3.28,6.07,4.88a1.2,1.2,0,0,0,.74.11c6.12-.7,12,.12,17.3,3.36a10.1,10.1,0,0,1,5.21,7.31,4.07,4.07,0,0,1-1.13,3.93c-1.31,1.19-2.54,2.45-3.82,3.68a11.66,11.66,0,0,1-9.53,3c-4-.34-8-1-12-1.47-1.25-.15-2.5-.4-3.75-.44a5.87,5.87,0,0,0-2.34.44,32.14,32.14,0,0,1-8.53,1.91c-1.65.21-3.31.37-5,.54a2.73,2.73,0,0,1-.7,0c-1.72-.26-3.42-.63-5.15-.77a5.11,5.11,0,0,1-4.2-2.18c-3.09,2.46-6.65,2-10.12,1.92a33.44,33.44,0,0,1-4.65-.69c-2.9-.53-5.58.31-8.29,1.16-3.17,1-6.33,2.08-9.57,2.77a12.2,12.2,0,0,1-10.18-2.6A6.51,6.51,0,0,1,132,213c0-.12,0-.25-.23-.41a1.66,1.66,0,0,0-.13.52,5.72,5.72,0,0,1-4,5.82c-6.06,2.25-12.08,2.21-17.79-1.17-1.34-.8-2.46-1.41-4-.51a8.68,8.68,0,0,1-2.68.55c-.19,3.57-3.38,6.78-8.85,7-7.39.36-13.93-2.17-20-6.27a36.57,36.57,0,0,1-18.31,4,7.37,7.37,0,0,1-6-2.71,5.1,5.1,0,0,1-1.14-3.5,2.5,2.5,0,0,0-.15-.71c-.06-.25-.25-.54-.18-.74.82-2.29,2.55-3.9,4.21-5.57a.38.38,0,0,1,.27-.11c1.27.28,2.06-.71,3-1.18a31.1,31.1,0,0,1,12.44-2.84,1.91,1.91,0,0,0,1.1-.33c5-4.35,10-8.74,15-13.12a5.34,5.34,0,0,0,.46-.5c-2.32-1.12-4.59-2.23-6.89-3.29-.23-.11-.64.05-.91.19a141.62,141.62,0,0,1-25.51,10,67.06,67.06,0,0,1-16.89,2.69,13.63,13.63,0,0,1-9.48-3.4,3,3,0,0,0-.58-.42c-6.52-3.34-11.31-8.53-15.38-14.48A44.89,44.89,0,0,1,3.57,171.3a10.87,10.87,0,0,1,0-7.23C5.21,159.42,7,154.78,9,150.25c4.48-10.13,10.75-19.15,17.91-27.55,4.29-5,8.59-10,13.17-14.8A100.8,100.8,0,0,1,57.35,93.27a27.87,27.87,0,0,1,11.5-4.47C74.35,88,78.81,90,82.48,94c3.24,3.53,5.11,7.83,6.79,12.23C89.59,107.05,89.88,107.91,90.22,108.88ZM191,189.27h0l-.44-.36-.37-.25a.93.93,0,0,0-.15-.26c-2.51-2.15-5-4.26-7.51-6.45a35.2,35.2,0,0,1-7.28-8.35,2.1,2.1,0,0,1,.14-2.79c.78-.75,1.32-.81,2.52.15,2.66,2.17,5.23,4.45,7.87,6.65,4,3.35,8.07,6.68,12.1,10a1.4,1.4,0,0,0,1.59.2c2.41-1,4.82-1.87,7.26-2.74a167.48,167.48,0,0,0,29.12-13.31A86.67,86.67,0,0,0,258,153.35a63.16,63.16,0,0,0,13.57-25.12c.63-2.38.94-4.85,1.4-7.28.08-.5.18-1,.24-1.5a48.2,48.2,0,0,0-.26-13.83,30.6,30.6,0,0,0-6.39-15c-2.84-3.42-6.26-5.94-10.78-6.69a27.35,27.35,0,0,0-9.55.07c-5.85,1.09-11.17,3.26-15.29,7.76a11.58,11.58,0,0,0-1.38,13.92c3.13,4.93,7.94,7.14,13.52,8a14.37,14.37,0,0,0,6.92-.43c2-.74,3.53-2.1,3.77-4.27a24.17,24.17,0,0,0-.18-5.23c-.2-2-.64-3.94-.84-5.92-.14-1.36.07-1.5,1.41-1.64a15.51,15.51,0,0,1,1.93,2c4,5.75,4.3,13.69-.5,18.15a8.83,8.83,0,0,1-1.56,1.13c-.82.36-.87.91-.91,1.69a28.46,28.46,0,0,1-.55,5.55,28.43,28.43,0,0,1-8.32,13.89c-1.32,1.26-2.8,2.35-4.21,3.51l-.17.05-.48.31c-.87.46-1.74.94-2.62,1.38a35.75,35.75,0,0,1-14.55,4,47.64,47.64,0,0,1-11.05-1.1c-2.28-.45-4.47-1.1-5.91-3.22-1.27-1.85-2.67-3.61-4.09-5.35-1.09-1.34-2.28-2.59-3.31-3.73-2.47,1.22-4.75,2.44-7.1,3.51a18.41,18.41,0,0,1-8.09,1.89c-4.26-.11-6.64-3.16-5.67-7.28a20.35,20.35,0,0,1,4.06-7.48c1-1.29,2-2.53,3.16-3.92l-8.58-7.31c-.68.89-1.17,1.62-1.76,2.28q-4.86,5.44-9.77,10.85A49.24,49.24,0,0,1,155.5,135a16.1,16.1,0,0,1-3.62,1.86c-3.37,1.19-6-.12-7.21-3.49-1.12-3.1-1.1-6.33-1-9.56a88.71,88.71,0,0,1,2.59-18.35c.39-1.65.83-3.28,1.27-5a42.38,42.38,0,0,0-8.68-1.33c-.37,2.57-.64,5-1.07,7.33a83.3,83.3,0,0,1-4.92,18.08,17.16,17.16,0,0,1-4.24,6.54,6.24,6.24,0,0,1-8.69-.22,12.05,12.05,0,0,1-3.39-7.28c-.63-5.06-1-10.14-1.47-15.22-.18-2.1-.2-4.21-.3-6.51l-6.8,2.5c.59,3.16,1.22,6.12,1.68,9.11a51.72,51.72,0,0,1,.71,12.79,12.45,12.45,0,0,1-1.52,5.36,4.14,4.14,0,0,1-6.37,1.34,4.28,4.28,0,0,1-1.12-1,39.63,39.63,0,0,1-3.19-5.08,45.27,45.27,0,0,1-4.28-13.75c-1.78.8-2,1.32-1.68,3.09.42,2.47.67,5,1,7.46A1.74,1.74,0,0,1,92,125.67a2.21,2.21,0,0,1-2.35-1.43c-.77-1.67-1.55-3.33-2.36-5a1.35,1.35,0,0,0-.7-.71c-2.14-.5-2.81-2.17-1.61-4a1.52,1.52,0,0,0,.22-1.16,45.74,45.74,0,0,0-6.74-13.33c-1.58-2-3.4-3.82-6.11-4.28a15.35,15.35,0,0,0-2.62-.07,20.72,20.72,0,0,0-8.15,3.36A95.24,95.24,0,0,0,44,114c-5.69,6-11.12,12.15-16.54,18.36a119.52,119.52,0,0,0-12.89,17.74c-.68,1.16-1.31,2.35-2,3.52,3.11,1.76,3.27,2,4.42,4,2.39,4.23.48,8.37-4.2,9a21,21,0,0,1-4.17-.3c1.35,4.56,3.81,8.55,6.3,12.53l.27.36.17.22a1.71,1.71,0,0,0,.19.46,38.74,38.74,0,0,0,12.7,12.19c2,1.16,4.07,2.21,6.54,1.85,2.82-.41,5.67-.63,8.47-1.16a103.07,103.07,0,0,0,19.49-5.91c4.55-1.82,9.15-3.52,13.64-5.47a46.76,46.76,0,0,0,12-7.51,6.24,6.24,0,0,1,4.22-1.81c1.31,0,1.67.63,1.07,1.76a3.89,3.89,0,0,1-.51.76c-.76.87-1.53,1.74-2.3,2.6-1.45,1.62-2.87,3.28-4.39,4.83a39.25,39.25,0,0,1-3.11,2.61c2.18.55,4.11,1.07,6,1.51a1.33,1.33,0,0,0,1-.42c1-1,1.92-1.93,2.8-3,2.18-2.57,4.34-5.15,6.45-7.77a1.21,1.21,0,0,1,1.66-.44,17,17,0,0,1-.24,4.06A17.94,17.94,0,0,1,98.88,183a75.49,75.49,0,0,1-11,12.74c-4.68,4.55-9.64,8.83-14.54,13.15a8.54,8.54,0,0,1-4.9,2.54c-.69.05-1.42-.3-2.09-.21-3.25.44-6.48,1-9.21,3l-2.35,2,.16.45c1.13,0,2.25.07,3.38.05A40.09,40.09,0,0,0,71,214.4a9.89,9.89,0,0,1,8.38.51A33.36,33.36,0,0,0,92,219a16.39,16.39,0,0,0,4.7-.52c1-.2,1.1-.83.48-1.6a15.45,15.45,0,0,0-1.78-1.64,9.4,9.4,0,0,0-.87-.69c-3.52-2.23-7.48-3.09-11.55-3.54-1.38-.16-1.85-.49-2-1.89a22,22,0,0,1,2.25-3.24,38.35,38.35,0,0,1,4-3.19c3.82-2.89,7.79-5.61,11.45-8.7,4.45-3.78,8.66-7.86,13-11.84a1.34,1.34,0,0,1,1.84-.18,1.32,1.32,0,0,1,.41,1.82c-1,1.66-2,3.31-3.08,4.92-.6.87-1.34,1.64-2.11,2.57,2-.14,3.79-.39,5.58-.36,3,.05,6,.23,9.06.43,2.37.15,4.73.42,7.1.64,3.45.31,6.89.82,10.34.9,5,.12,9.94,0,14.91-.13,5.34-.11,10.68-.27,16-.45,1.22,0,2.44-.25,3.93-.4-2.09-1.71-3.89-3.2-5.71-4.66-1.56-1.25-3.15-2.48-4.73-3.71a2.43,2.43,0,0,0-.33-.38,105.38,105.38,0,0,1-16.12-15.76,9.43,9.43,0,0,1-2.62-5.42,21.91,21.91,0,0,0-.3-2.42c-.31-1.77-.24-3.4,1.36-4.6.55-.41,1-.89,1.62-1.25,4.2-2.63,8.78-2.84,13.5-2a36.83,36.83,0,0,1,13,5.38c2.56,1.61,5,3.41,7.41,5.24a5.23,5.23,0,0,1,2.05,3.66c.13,1.19-.47,2-1.65,2a7.14,7.14,0,0,1-2.77-.45,21.4,21.4,0,0,1-3.59-2.14c-4.62-3.24-9.39-6.16-14.91-7.66-3.87-1.05-7.67-1.15-11.34.72-.33.17-.81.5-.83.78-.07,1.37,0,2.85,1,3.84,3.08,2.94,6.16,5.89,9.42,8.61,4.47,3.74,9.05,7.34,13.67,10.89,4.33,3.31,8.72,6.55,13.18,9.68,3.34,2.34,7.24,3.59,11,5.23a13.94,13.94,0,0,1,3.63,2.55c1.12,1,1.36,3,.46,3.92-1.26,1.25-2.37,2.78-4.18,3.32a31,31,0,0,1-4.26,1c-2.66.38-5.34.67-7.73,2.07a7.57,7.57,0,0,0-3.2,2.7,14.55,14.55,0,0,0,2.32.32,61.09,61.09,0,0,0,6.2-.43,28.65,28.65,0,0,0,6.27-1.31,22.09,22.09,0,0,1,11.74-1c4,.63,7.92,1.38,12,1.09A7.75,7.75,0,0,0,226,210c1.09-1,1.15-1.57.07-2.52a10.59,10.59,0,0,0-5.41-2.68c-1.53-.28-3-.63-4.58-.81s-2.86-.1-4.28-.23-2.89-.51-3.59-1.83a4.52,4.52,0,0,0-1.94-1.8c-.7-.43-1.39-.87-2.05-1.34q-6.53-4.65-13-9.33ZM164.6,119.76l1.05-1.23.16-.18,1.06-1.26.16-.2,1.08-1.23.16-.16,4.22-3.92-1-.63c-1.69-1.07-3.34-2.23-5.08-3.2a67.29,67.29,0,0,0-14.35-6l-1.93-.66c-.06.3-.1.46-.12.62-.52,3.56-1.07,7.12-1.55,10.69-.73,5.46-1.43,10.93-.86,16.45a19.11,19.11,0,0,0,1,3.81,1.08,1.08,0,0,0,1.51.66,12.08,12.08,0,0,0,2.73-1.32,58.21,58.21,0,0,0,10.51-10.76h0l1.23-1.44Zm19.36,7.1c-1.07,2.11-2.28,4.16-3.17,6.35-.67,1.64.17,2.61,1.94,2.46,4.37-.38,8-2.61,11.83-4.73l-1.75-1.61-6.41-6.18L185,125.24l-.41.62-.18.26-.12.14ZM107,126.48a45.31,45.31,0,0,0-.7-12c-.48-2.82-1.12-5.62-1.74-8.7l-5.11,3c-.66.42-1.34.81-2,1.25a1,1,0,0,0-.41.63,17.27,17.27,0,0,0,.05,3.67,44.27,44.27,0,0,0,4.74,12.88,14.28,14.28,0,0,0,2.48,3.07c.66.67,1.36.52,1.71-.36A31.7,31.7,0,0,0,107,126.48ZM128.35,125a29.05,29.05,0,0,0,1.82-4.18c1.38-5.21,2.64-10.45,3.91-15.69.5-2.06.91-4.14,1.36-6.17a38.15,38.15,0,0,0-4.28,0c-3.67.43-7.33,1-11,1.5l-2.9.62c0,.63.06,1.13.11,1.63.4,3.86.78,7.72,1.21,11.57.39,3.55.55,7.15,1.8,10.53a11.13,11.13,0,0,0,1.73,3.2,2.52,2.52,0,0,0,4.14.08A24.83,24.83,0,0,0,128.35,125Zm-16.64,71.44-.1.33c.67,1,1.31,2,2,2.93a9.34,9.34,0,0,0,6.15,3.85,20.37,20.37,0,0,1,2.89.62,15.28,15.28,0,0,1,4.19,1.52,15.3,15.3,0,0,1,3.19,3.37c1,1.25,2,1.6,3.32.66a13.39,13.39,0,0,0,2.76-2.55,6.27,6.27,0,0,1,2.9-2.13,20.44,20.44,0,0,1,3.71-1.09c1.92-.31,3.88-.41,5.88-.61-.76-1.22-1.51-2.46-2.31-3.67a1.05,1.05,0,0,0-.71-.25c-4.38-.27-8.77-.43-13.14-.82-4.77-.42-9.53-1-14.3-1.57C116,196.84,113.86,196.67,111.71,196.48Zm40.21,2.82c.49.63.81,1,1.14,1.46,1.25,1.53,2.57,3,3.73,4.59a2.81,2.81,0,0,1-1.71,4.39,4.42,4.42,0,0,0-1.26.6,4.24,4.24,0,0,1-3.22,1c-2.19-.44-4.38-.89-6.58-1.31a2,2,0,0,0-1.19,0,24.62,24.62,0,0,0-4,2.31c-1.35,1-1.12,2,.39,2.82a7.62,7.62,0,0,0,6,.56c2.8-.82,5.59-1.71,8.36-2.65a22.14,22.14,0,0,1,11.94-.75,16.91,16.91,0,0,0,6.87.29,1.65,1.65,0,0,0,1.57-1.9,3,3,0,0,0-2.46-2.75,27.09,27.09,0,0,0-4.8-.83c-1.3-.11-2.64.14-4,.16a2.6,2.6,0,0,1-2.68-2.18,16.46,16.46,0,0,1-.07-3.14c0-1,.25-2-.35-2.64Zm-49.18-2.37a24.3,24.3,0,0,1,1,3.55,45.41,45.41,0,0,1,.24,5.09c0,1.9-1.13,2.79-3,2.58a9.67,9.67,0,0,0-5,1.09c1.49,1.12,2.92,2.2,4.36,3.25a.75.75,0,0,0,.61.15c1.75-.73,3.52-1.43,5.22-2.27a3.37,3.37,0,0,1,3.79.22c.69.5,1.42.94,2.12,1.42,3.77,2.57,7.9,2.88,12.21,1.92a5.88,5.88,0,0,0,1.57-1c-.34-.53-.67-1.06-1-1.58a1,1,0,0,0-.42-.29,27.11,27.11,0,0,0-4.74-1.76c-4.69-.85-8.38-3.06-10.81-7.2-1.09-1.85-2.13-3.73-3.16-5.6-.73-1.34-.9-1.4-2.07-.42C103.26,196.43,102.92,196.76,102.74,196.93Zm63.53,4c.9.06,1.78.08,2.66.17,3.65.38,7,1.44,9.4,4.45a1.7,1.7,0,0,0,2.6.43,20.41,20.41,0,0,1,8-3.19c1.3-.18,2.6-.3,3.6-.42L182.69,197c-.15-.08-.32-.2-.46-.17-1.42.26-2.83.56-4.25.83s-2.86.62-4.3.78c-2.46.28-4.93.43-7.41.64ZM11,156.09l-1.86,6.28a19.85,19.85,0,0,0,3.12.88c2.17.27,3.15-1,2.59-3.11C14.35,158.22,13.08,157,11,156.09Zm78.88,51a7.7,7.7,0,0,0,1.57.4,1.3,1.3,0,0,0,1-.36,7,7,0,0,1,3.43-2.61c.94-.35,1.9-.65,3-1l-.51-2.8Z" transform="translate(-2.93 -76.59)"/><path class="cls-2" d="M57.15,214.21c2.73-2,6-2.57,9.21-3,.67-.09,1.4.26,2.09.21a8.54,8.54,0,0,0,4.9-2.54c4.9-4.32,9.86-8.6,14.54-13.15a75.49,75.49,0,0,0,11-12.74,17.94,17.94,0,0,0,2.19-4.35,17,17,0,0,0,.24-4.06c.18-1.23.55-2.46-.19-3.66a6.34,6.34,0,0,0-5.79-2.23A31.6,31.6,0,0,0,90.11,170c-9.7,3.72-19.36,7.56-29.06,11.3-6.81,2.63-13.63,5.26-20.79,6.82a17.88,17.88,0,0,1-7.25.26,35.23,35.23,0,0,1-15.3-7.3c-.73-.58-1.53-1.07-2.31-1.6l-.17-.22-.27-.36c-2.49-4-5-8-6.3-12.53a21,21,0,0,0,4.17.3c4.68-.62,6.59-4.76,4.2-9-1.15-2-1.31-2.24-4.42-4,.66-1.17,1.29-2.36,2-3.52a119.52,119.52,0,0,1,12.89-17.74C32.89,126.18,38.32,120,44,114a95.24,95.24,0,0,1,17.52-15,20.72,20.72,0,0,1,8.15-3.36,15.35,15.35,0,0,1,2.62.07A52.22,52.22,0,0,1,78,106.43a38.84,38.84,0,0,1,2.64,11c.37,4.41,2.45,8.66,7.76,9.18,1.23.11,2.59.24,3.52-1a1.74,1.74,0,0,0,1.24-2.07c-.34-2.49-.59-5-1-7.46-.29-1.77-.1-2.29,1.68-3.09a45.27,45.27,0,0,0,4.28,13.75,39.63,39.63,0,0,0,3.19,5.08,4.28,4.28,0,0,0,1.12,1,4.14,4.14,0,0,0,6.37-1.34,12.45,12.45,0,0,0,1.52-5.36,51.72,51.72,0,0,0-.71-12.79c-.46-3-1.09-6-1.68-9.11l6.8-2.5c.1,2.3.12,4.41.3,6.51.44,5.08.84,10.16,1.47,15.22a12.05,12.05,0,0,0,3.39,7.28,6.24,6.24,0,0,0,8.69.22,17.16,17.16,0,0,0,4.24-6.54,83.3,83.3,0,0,0,4.92-18.08c.43-2.37.7-4.76,1.07-7.33a42.38,42.38,0,0,1,8.68,1.33c-.44,1.73-.88,3.36-1.27,5a88.71,88.71,0,0,0-2.59,18.35c-.08,3.23-.1,6.46,1,9.56,1.22,3.37,3.84,4.68,7.21,3.49A16.1,16.1,0,0,0,155.5,135a49.24,49.24,0,0,0,8.63-8.07q4.92-5.4,9.77-10.85c.59-.66,1.08-1.39,1.76-2.28l8.58,7.31c-1.13,1.39-2.18,2.63-3.16,3.92a20.35,20.35,0,0,0-4.06,7.48c-1,4.12,1.41,7.17,5.67,7.28a18.41,18.41,0,0,0,8.09-1.89c2.35-1.07,4.63-2.29,7.1-3.51,1,1.14,2.22,2.39,3.31,3.73,1.42,1.74,2.82,3.5,4.09,5.35,1.44,2.12,3.63,2.77,5.91,3.22a47.64,47.64,0,0,0,11.05,1.1,35.75,35.75,0,0,0,14.55-4c.88-.44,1.75-.92,2.62-1.38l.48-.31.17-.05a5,5,0,0,0,1.05-.34c1.4-.84,2.83-1.64,4.14-2.59a24.28,24.28,0,0,0,9-12.2,30.49,30.49,0,0,0,1.4-10.64c4.8-4.46,4.46-12.4.5-18.15a15.51,15.51,0,0,0-1.93-2,5.17,5.17,0,0,1-.85-.51c-1.31-1.12-2.16-1.13-3.32.14a9.61,9.61,0,0,0-2,5.15c-.43,2.59-.67,5.23-1.28,7.79-.5,2.07-1.35,4.09-3.66,4.92-5.58-.86-10.39-3.07-13.52-8A11.58,11.58,0,0,1,231,91.72c4.12-4.5,9.44-6.67,15.29-7.76a27.35,27.35,0,0,1,9.55-.07c4.52.75,7.94,3.27,10.78,6.69a30.6,30.6,0,0,1,6.39,15,48.2,48.2,0,0,1,.26,13.83c-.06.5-.16,1-.24,1.5-.13.19-.27.38-.39.59-2.54,4.53-5,9.15-7.67,13.58a85.89,85.89,0,0,1-9.32,12.34A86.91,86.91,0,0,1,244.55,158a73.84,73.84,0,0,1-16.77,10,73,73,0,0,1-26,5.67,43.2,43.2,0,0,1-5.8-.2A68.27,68.27,0,0,1,187,172.3c-3.6-.83-7.08-2.17-10.64-3.17a32.27,32.27,0,0,0-5.18-.91c-1.07-.12-1.66.62-1.5,1.68a6.55,6.55,0,0,0,.53,1.85c1.65,3.33,4.48,5.62,7.27,7.89,3.05,2.48,6.25,4.78,9.43,7.11,1,.73,2.13,1.28,3.2,1.91l.37.25.44.36h0l.19.21q6.51,4.67,13,9.33c.66.47,1.35.91,2.05,1.34a4.52,4.52,0,0,1,1.94,1.8c.7,1.32,2.17,1.69,3.59,1.83s2.86.06,4.28.23,3.05.53,4.58.81c.1,1.08.15,2.17-1.1,2.67a6.46,6.46,0,0,1-2,.56c-2,.08-4.06.12-6.08,0a53.56,53.56,0,0,0-14.21,1.57c-3,.65-6.05,1.08-9.1,1.46-.72.09-1.73.2-2.23-.75,2.39-1.4,5.07-1.69,7.73-2.07a31,31,0,0,0,4.26-1c1.81-.54,2.92-2.07,4.18-3.32.9-.89.66-2.89-.46-3.92a13.94,13.94,0,0,0-3.63-2.55c-3.71-1.64-7.61-2.89-11-5.23-4.46-3.13-8.85-6.37-13.18-9.68-4.62-3.55-9.2-7.15-13.67-10.89-3.26-2.72-6.34-5.67-9.42-8.61-1-1-1.06-2.47-1-3.84,0-.28.5-.61.83-.78,3.67-1.87,7.47-1.77,11.34-.72,5.52,1.5,10.29,4.42,14.91,7.66a21.4,21.4,0,0,0,3.59,2.14,7.14,7.14,0,0,0,2.77.45c1.18,0,1.78-.77,1.65-2a5.23,5.23,0,0,0-2.05-3.66c-2.41-1.83-4.85-3.63-7.41-5.24a36.83,36.83,0,0,0-13-5.38c-4.72-.87-9.3-.66-13.5,2-.58.36-1.07.84-1.62,1.25-1.6,1.2-1.67,2.83-1.36,4.6a21.91,21.91,0,0,1,.3,2.42,9.43,9.43,0,0,0,2.62,5.42,105.38,105.38,0,0,0,16.12,15.76,2.43,2.43,0,0,1,.33.38c-2.77.2-5.54.52-8.31.59A105.33,105.33,0,0,1,136.27,183,94,94,0,0,1,121,178.83c-2.24-.79-4.5-1.5-6.78-2.15a2.88,2.88,0,0,0-3.07.9c-1.32,1.46-2.56,3-4,4.35-4.16,3.9-8.38,7.75-12.61,11.58-1.68,1.52-3.45,3-5.18,4.43-2.08,1.79-4.24,3.51-6.22,5.41A6,6,0,0,0,81,209.11c.14,1.4.61,1.73,2,1.89,4.07.45,8,1.31,11.55,3.54a9.4,9.4,0,0,1,.87.69,15.31,15.31,0,0,1-2.67.78,10.94,10.94,0,0,1-2.73-.17,36.6,36.6,0,0,1-11-2.91,9,9,0,0,0-3.11-.74c-2.5-.18-4.81.75-7.12,1.5-3,1-6.12,1.78-9.35,1.32A13.67,13.67,0,0,1,57.15,214.21ZM18.49,149.44c0,6.47,4.5,9.23,9.48,8.84a12.77,12.77,0,0,0,11.41-14.13,7.66,7.66,0,0,0-6.32-7,10.41,10.41,0,0,0-5.89.78c-3.09,1.28-5,3.79-6.8,6.42A9.8,9.8,0,0,0,18.49,149.44ZM76,148.7a9.59,9.59,0,0,0-7.06-9.62,10.76,10.76,0,0,0-9.41,2.09c-2.91,2.12-3.9,5-3.66,8.46.14,2.08,1.33,3.69,2.35,5.36,2.18,3.59,5.35,4.69,9.36,3.45a12.83,12.83,0,0,0,6-4.35C75,152.42,76.09,150.72,76,148.7Zm8.35,6.59a7.8,7.8,0,0,0-5.11,1.31A5.78,5.78,0,0,0,78,158.28c-.23.37-.3.88-.59,1.19a7.16,7.16,0,0,0-2,4.56c-.15,3.59,3.2,6,6.83,5.73a12.23,12.23,0,0,0,7.25-3.19c3.14-2.79,3.34-7,.37-9.53A7.55,7.55,0,0,0,84.32,155.29Z" transform="translate(-2.93 -76.59)"/><path class="cls-3" d="M190.14,188.66c-1.07-.63-2.2-1.18-3.2-1.91-3.18-2.33-6.38-4.63-9.43-7.11-2.79-2.27-5.62-4.56-7.27-7.89a6.55,6.55,0,0,1-.53-1.85c-.16-1.06.43-1.8,1.5-1.68a32.27,32.27,0,0,1,5.18.91c3.56,1,7,2.34,10.64,3.17a68.27,68.27,0,0,0,8.95,1.19,43.2,43.2,0,0,0,5.8.2,73,73,0,0,0,26-5.67,73.84,73.84,0,0,0,16.77-10,86.91,86.91,0,0,0,11.06-10.56,85.89,85.89,0,0,0,9.32-12.34c2.72-4.43,5.13-9.05,7.67-13.58.12-.21.26-.4.39-.59-.46,2.43-.77,4.9-1.4,7.28A63.16,63.16,0,0,1,258,153.35a86.67,86.67,0,0,1-22.22,18.43,167.48,167.48,0,0,1-29.12,13.31c-2.44.87-4.85,1.79-7.26,2.74a1.4,1.4,0,0,1-1.59-.2c-4-3.34-8.08-6.67-12.1-10-2.64-2.2-5.21-4.48-7.87-6.65-1.2-1-1.74-.9-2.52-.15a2.1,2.1,0,0,0-.14,2.79,35.2,35.2,0,0,0,7.28,8.35c2.47,2.19,5,4.3,7.51,6.45A.93.93,0,0,1,190.14,188.66Z" transform="translate(-2.93 -76.59)"/><path class="cls-3" d="M81,209.11a6,6,0,0,1,2.08-5.76c2-1.9,4.14-3.62,6.22-5.41,1.73-1.48,3.5-2.91,5.18-4.43,4.23-3.83,8.45-7.68,12.61-11.58,1.43-1.35,2.67-2.89,4-4.35a2.88,2.88,0,0,1,3.07-.9c2.28.65,4.54,1.36,6.78,2.15A94,94,0,0,0,136.27,183a105.33,105.33,0,0,0,20.61,1.17c2.77-.07,5.54-.39,8.31-.59,1.58,1.23,3.17,2.46,4.73,3.71,1.82,1.46,3.62,2.95,5.71,4.66-1.49.15-2.71.36-3.93.4-5.33.18-10.67.34-16,.45-5,.1-9.94.25-14.91.13-3.45-.08-6.89-.59-10.34-.9-2.37-.22-4.73-.49-7.1-.64-3-.2-6-.38-9.06-.43-1.79,0-3.59.22-5.58.36.77-.93,1.51-1.7,2.11-2.57,1.08-1.61,2.1-3.26,3.08-4.92a1.32,1.32,0,0,0-.41-1.82,1.34,1.34,0,0,0-1.84.18c-4.29,4-8.5,8.06-13,11.84-3.66,3.09-7.63,5.81-11.45,8.7a38.35,38.35,0,0,0-4,3.19A22,22,0,0,0,81,209.11Z" transform="translate(-2.93 -76.59)"/><path class="cls-4" d="M15.4,179.45c.78.53,1.58,1,2.31,1.6a35.23,35.23,0,0,0,15.3,7.3,17.88,17.88,0,0,0,7.25-.26c7.16-1.56,14-4.19,20.79-6.82,9.7-3.74,19.36-7.58,29.06-11.3a31.6,31.6,0,0,1,5.22-1.29,6.34,6.34,0,0,1,5.79,2.23c.74,1.2.37,2.43.19,3.66a1.21,1.21,0,0,0-1.66.44c-2.11,2.62-4.27,5.2-6.45,7.77-.88,1-1.84,2-2.8,3a1.33,1.33,0,0,1-1,.42c-1.94-.44-3.87-1-6-1.51A39.25,39.25,0,0,0,86.51,182c1.52-1.55,2.94-3.21,4.39-4.83.77-.86,1.54-1.73,2.3-2.6a3.89,3.89,0,0,0,.51-.76c.6-1.13.24-1.73-1.07-1.76a6.24,6.24,0,0,0-4.22,1.81,46.76,46.76,0,0,1-12,7.51c-4.49,2-9.09,3.65-13.64,5.47a103.07,103.07,0,0,1-19.49,5.91c-2.8.53-5.65.75-8.47,1.16-2.47.36-4.53-.69-6.54-1.85a38.74,38.74,0,0,1-12.7-12.19A1.71,1.71,0,0,1,15.4,179.45Z" transform="translate(-2.93 -76.59)"/><path class="cls-5" d="M167,116.89l-.16.2a1.1,1.1,0,0,0-1.06,1.26l-.16.18a1.05,1.05,0,0,0-1.05,1.23h0c-.74.2-1.26.57-1.23,1.44h0a9.5,9.5,0,0,0-1.2.84c-1.7,1.66-3.31,3.41-5.07,5a16.17,16.17,0,0,1-3.26,2.22c-1.58.86-2.76.28-3.17-1.47a15.25,15.25,0,0,1-.47-3c-.09-2.58-.21-5.16-.1-7.74.1-2.28.46-4.56.76-6.84.37-2.84.81-5.67,1.22-8.51a67.29,67.29,0,0,1,14.35,6c1.74,1,3.39,2.13,5.08,3.2-.56.74-1.15,1.45-1.69,2.2s-1,1.56-1.56,2.35l-.16.16A1.11,1.11,0,0,0,167,116.89Z" transform="translate(-2.93 -76.59)"/><path class="cls-6" d="M120.17,100.52c3.66-.51,7.32-1.07,11-1.5a38.15,38.15,0,0,1,4.28,0c-.45,2-.86,4.11-1.36,6.17-1.27,5.24-2.53,10.48-3.91,15.69a29.05,29.05,0,0,1-1.82,4.18,2.5,2.5,0,0,1-3.27-.31,8.07,8.07,0,0,1-1.73-2.43,30.14,30.14,0,0,1-2-9.49c-.1-1.52-.29-3-.44-4.54Z" transform="translate(-2.93 -76.59)"/><path class="cls-7" d="M151.92,199.3h7.72c.6.68.39,1.66.35,2.64a16.46,16.46,0,0,0,.07,3.14,2.6,2.6,0,0,0,2.68,2.18c1.32,0,2.66-.27,4-.16a27.09,27.09,0,0,1,4.8.83,3,3,0,0,1,2.46,2.75,1.65,1.65,0,0,1-1.57,1.9,16.91,16.91,0,0,1-6.87-.29,22.14,22.14,0,0,0-11.94.75c-2.77.94-5.56,1.83-8.36,2.65a7.62,7.62,0,0,1-6-.56c-1.51-.84-1.74-1.78-.39-2.82a24.62,24.62,0,0,1,4-2.31,2,2,0,0,1,1.19,0c2.2.42,4.39.87,6.58,1.31a4.24,4.24,0,0,0,3.22-1,4.42,4.42,0,0,1,1.26-.6,2.81,2.81,0,0,0,1.71-4.39c-1.16-1.59-2.48-3.06-3.73-4.59C152.73,200.35,152.41,199.93,151.92,199.3Z" transform="translate(-2.93 -76.59)"/><path class="cls-8" d="M102.74,196.93c.18-.17.52-.5.89-.8,1.17-1,1.34-.92,2.07.42,1,1.87,2.07,3.75,3.16,5.6,2.43,4.14,6.12,6.35,10.81,7.2a27.11,27.11,0,0,1,4.74,1.76,1,1,0,0,1,.42.29c.35.52.68,1,1,1.58a5.88,5.88,0,0,1-1.57,1c-4.31,1-8.44.65-12.21-1.92-.7-.48-1.43-.92-2.12-1.42a3.37,3.37,0,0,0-3.79-.22c-1.7.84-3.47,1.54-5.22,2.27a.75.75,0,0,1-.61-.15c-1.44-1.05-2.87-2.13-4.36-3.25a9.67,9.67,0,0,1,5-1.09c1.89.21,3.05-.68,3-2.58a45.41,45.41,0,0,0-.24-5.09A24.3,24.3,0,0,0,102.74,196.93Z" transform="translate(-2.93 -76.59)"/><path class="cls-9" d="M92,125.67c-.93,1.19-2.29,1.06-3.52,1-5.31-.52-7.39-4.77-7.76-9.18a38.84,38.84,0,0,0-2.64-11A52.22,52.22,0,0,0,72.3,95.79c2.71.46,4.53,2.23,6.11,4.28a45.74,45.74,0,0,1,6.74,13.33,1.52,1.52,0,0,1-.22,1.16c-1.2,1.82-.53,3.49,1.61,4a1.35,1.35,0,0,1,.7.71c.81,1.65,1.59,3.31,2.36,5A2.21,2.21,0,0,0,92,125.67Z" transform="translate(-2.93 -76.59)"/><path class="cls-7" d="M185.85,210.34c.5.95,1.51.84,2.23.75,3-.38,6.1-.81,9.1-1.46a53.56,53.56,0,0,1,14.21-1.57c2,.11,4.05.07,6.08,0a6.46,6.46,0,0,0,2-.56c1.25-.5,1.2-1.59,1.1-2.67A10.59,10.59,0,0,1,226,207.5c1.08.95,1,1.54-.07,2.52a7.75,7.75,0,0,1-4.81,1.72c-4,.29-8-.46-12-1.09a22.09,22.09,0,0,0-11.74,1,28.65,28.65,0,0,1-6.27,1.31,61.09,61.09,0,0,1-6.2.43,14.55,14.55,0,0,1-2.32-.32A7.57,7.57,0,0,1,185.85,210.34Z" transform="translate(-2.93 -76.59)"/><path class="cls-3" d="M243.1,113.64c2.31-.83,3.16-2.85,3.66-4.92.61-2.56.85-5.2,1.28-7.79a9.61,9.61,0,0,1,2-5.15c1.16-1.27,2-1.26,3.32-.14a5.17,5.17,0,0,0,.85.51c-1.34.14-1.55.28-1.41,1.64.2,2,.64,3.94.84,5.92a24.17,24.17,0,0,1,.18,5.23c-.24,2.17-1.74,3.53-3.77,4.27A14.37,14.37,0,0,1,243.1,113.64Z" transform="translate(-2.93 -76.59)"/><path class="cls-10" d="M120.17,100.52l.78,7.75c.15,1.51.34,3,.44,4.54a30.14,30.14,0,0,0,2,9.49,8.07,8.07,0,0,0,1.73,2.43,2.5,2.5,0,0,0,3.27.31,24.83,24.83,0,0,1-2.09,3.11,2.52,2.52,0,0,1-4.14-.08,11.13,11.13,0,0,1-1.73-3.2c-1.25-3.38-1.41-7-1.8-10.53-.43-3.85-.81-7.71-1.21-11.57,0-.5-.07-1-.11-1.63Z" transform="translate(-2.93 -76.59)"/><path class="cls-11" d="M152.09,101.7c-.41,2.84-.85,5.67-1.22,8.51-.3,2.28-.66,4.56-.76,6.84-.11,2.58,0,5.16.1,7.74a15.25,15.25,0,0,0,.47,3c.41,1.75,1.59,2.33,3.17,1.47a16.17,16.17,0,0,0,3.26-2.22c1.76-1.59,3.37-3.34,5.07-5a9.5,9.5,0,0,1,1.2-.84A58.21,58.21,0,0,1,152.87,132a12.08,12.08,0,0,1-2.73,1.32,1.08,1.08,0,0,1-1.51-.66,19.11,19.11,0,0,1-1-3.81c-.57-5.52.13-11,.86-16.45.48-3.57,1-7.13,1.55-10.69,0-.16.06-.32.12-.62Z" transform="translate(-2.93 -76.59)"/><path class="cls-6" d="M99.49,108.84l5.11-3c.62,3.08,1.26,5.88,1.74,8.7a45.31,45.31,0,0,1,.7,12,6.13,6.13,0,0,1-1.38-1,32.5,32.5,0,0,1-4.32-8.93A25.93,25.93,0,0,1,99.49,108.84Z" transform="translate(-2.93 -76.59)"/><path class="cls-7" d="M57.15,214.21a13.67,13.67,0,0,0,2.36.8c3.23.46,6.3-.32,9.35-1.32,2.31-.75,4.62-1.68,7.12-1.5a9,9,0,0,1,3.11.74,36.6,36.6,0,0,0,11,2.91,10.94,10.94,0,0,0,2.73.17,15.31,15.31,0,0,0,2.67-.78,15.45,15.45,0,0,1,1.78,1.64c.62.77.47,1.4-.48,1.6A16.39,16.39,0,0,1,92,219a33.36,33.36,0,0,1-12.64-4.08A9.89,9.89,0,0,0,71,214.4a40.09,40.09,0,0,1-12.68,2.28c-1.13,0-2.25,0-3.38-.05l-.16-.45Z" transform="translate(-2.93 -76.59)"/><path class="cls-10" d="M99.49,108.84a25.93,25.93,0,0,0,1.85,7.66,32.5,32.5,0,0,0,4.32,8.93,6.13,6.13,0,0,0,1.38,1,31.7,31.7,0,0,1-1,3.5c-.35.88-1,1-1.71.36a14.28,14.28,0,0,1-2.48-3.07,44.27,44.27,0,0,1-4.74-12.88,17.27,17.27,0,0,1-.05-3.67,1,1,0,0,1,.41-.63C98.15,109.65,98.83,109.26,99.49,108.84Z" transform="translate(-2.93 -76.59)"/><path class="cls-12" d="M255.61,116.26a30.49,30.49,0,0,1-1.4,10.64,24.28,24.28,0,0,1-9,12.2c-1.31,1-2.74,1.75-4.14,2.59a5,5,0,0,1-1.05.34c1.41-1.16,2.89-2.25,4.21-3.51a28.43,28.43,0,0,0,8.32-13.89,28.46,28.46,0,0,0,.55-5.55c0-.78.09-1.33.91-1.69A8.83,8.83,0,0,0,255.61,116.26Z" transform="translate(-2.93 -76.59)"/><path class="cls-6" d="M185,125.24l1.38-2.09,6.41,6.18c-.17.19-.31.46-.52.56a20.13,20.13,0,0,1-3,1.25,25.11,25.11,0,0,1-4.37.82c-1.35.12-1.88-.54-1.7-1.88a20.49,20.49,0,0,1,.66-2.34,6.24,6.24,0,0,0,.09-.88c.12-.2.24-.4.35-.6a.24.24,0,0,0,.12-.14l.18-.26Z" transform="translate(-2.93 -76.59)"/><path class="cls-11" d="M184,126.86a6.24,6.24,0,0,1-.09.88,20.49,20.49,0,0,0-.66,2.34c-.18,1.34.35,2,1.7,1.88a25.11,25.11,0,0,0,4.37-.82,20.13,20.13,0,0,0,3-1.25c.21-.1.35-.37.52-.56l1.75,1.61c-3.83,2.12-7.46,4.35-11.83,4.73-1.77.15-2.61-.82-1.94-2.46C181.68,131,182.89,129,184,126.86Z" transform="translate(-2.93 -76.59)"/><path class="cls-13" d="M11,156.09c2.07.93,3.34,2.13,3.85,4,.56,2.13-.42,3.38-2.59,3.11a19.85,19.85,0,0,1-3.12-.88Z" transform="translate(-2.93 -76.59)"/><path class="cls-11" d="M168.27,115.5c.52-.79,1-1.59,1.56-2.35s1.13-1.46,1.69-2.2l1,.63Z" transform="translate(-2.93 -76.59)"/><path class="cls-11" d="M163.37,121.2c0-.87.49-1.24,1.23-1.44Z" transform="translate(-2.93 -76.59)"/><path class="cls-11" d="M167,116.89a1.11,1.11,0,0,1,1.08-1.23Z" transform="translate(-2.93 -76.59)"/><path class="cls-11" d="M165.81,118.35a1.1,1.1,0,0,1,1.06-1.26Z" transform="translate(-2.93 -76.59)"/><path class="cls-11" d="M164.6,119.76a1.05,1.05,0,0,1,1.05-1.23Z" transform="translate(-2.93 -76.59)"/><path class="cls-11" d="M185,125.24l-.41.62Z" transform="translate(-2.93 -76.59)"/><path class="cls-12" d="M239.89,142.08l-.48.31Z" transform="translate(-2.93 -76.59)"/><path class="cls-3" d="M191,189.27l-.44-.36Z" transform="translate(-2.93 -76.59)"/><path class="cls-4" d="M15,178.87l.27.36Z" transform="translate(-2.93 -76.59)"/><path class="cls-11" d="M184.43,126.12a.24.24,0,0,1-.12.14Z" transform="translate(-2.93 -76.59)"/><path class="cls-3" d="M191.14,189.48l-.19-.21Z" transform="translate(-2.93 -76.59)"/><path class="cls-14" d="M18.49,149.44a9.8,9.8,0,0,1,1.88-5c1.79-2.63,3.71-5.14,6.8-6.42a10.41,10.41,0,0,1,5.89-.78,7.66,7.66,0,0,1,6.32,7A12.77,12.77,0,0,1,28,158.28C23,158.67,18.53,155.91,18.49,149.44Z" transform="translate(-2.93 -76.59)"/><path class="cls-14" d="M76,148.7c.12,2-1,3.72-2.4,5.39a12.83,12.83,0,0,1-6,4.35c-4,1.24-7.18.14-9.36-3.45-1-1.67-2.21-3.28-2.35-5.36-.24-3.46.75-6.34,3.66-8.46a10.76,10.76,0,0,1,9.41-2.09A9.59,9.59,0,0,1,76,148.7Z" transform="translate(-2.93 -76.59)"/><path class="cls-1" d="M84.32,155.29A7.55,7.55,0,0,1,89.85,157c3,2.55,2.77,6.74-.37,9.53a12.23,12.23,0,0,1-7.25,3.19c-3.63.3-7-2.14-6.83-5.73a7.16,7.16,0,0,1,2-4.56c.29-.31.36-.82.59-1.19a5.78,5.78,0,0,1,1.19-1.68A7.8,7.8,0,0,1,84.32,155.29Zm-1.23,4.06,0,.27c-.58,0-1.16,0-1.74,0-.28,0-.68.11-.8.3a15.46,15.46,0,0,0-1.66,3.2,2,2,0,0,0,2,2.6,7.49,7.49,0,0,0,6.32-2.93c.88-1.06.69-2-.56-2.57A20.05,20.05,0,0,0,83.09,159.35Z" transform="translate(-2.93 -76.59)"/><path class="cls-15" d="M83.09,159.35a20.05,20.05,0,0,1,3.49.89c1.25.55,1.44,1.51.56,2.57a7.49,7.49,0,0,1-6.32,2.93,2,2,0,0,1-2-2.6,15.46,15.46,0,0,1,1.66-3.2c.12-.19.52-.28.8-.3.58,0,1.16,0,1.74,0Z" transform="translate(-2.93 -76.59)"/></svg>