<svg id="Capa_1" data-name="Capa 1" xmlns="http://www.w3.org/2000/svg" viewBox="0 0 229.09 278.09"><defs><style>.cls-1{fill:#453a18;}.cls-2{fill:#9fc83a;}.cls-3{fill:#7f7140;}.cls-4{fill:#6e983f;}.cls-5{fill:#f3e909;}.cls-6{fill:#6d983e;}.cls-7{fill:#6e983e;}.cls-8{fill:#f2e809;}.cls-9{fill:#f2cc11;}.cls-10{fill:#f1cc11;}.cls-11{fill:#f1cd11;}.cls-12{fill:#7c6e3e;}.cls-13{fill:#443917;}.cls-14{fill:#463b18;}.cls-15{fill:#db8483;}</style></defs><path class="cls-1" d="M151.66,208.6a50.83,50.83,0,0,0-13.59-8.29c-6.81-2.76-13.7-5.33-20.43-8.26a194.29,194.29,0,0,1-22.25-11.73c-2.8-1.68-5.47-3.73-8.47-4.92-2.78-1.1-3.19-3.35-4-5.53a1.59,1.59,0,0,1,1.69-2.22,13.91,13.91,0,0,1,6.63,2.11c7.12,4.18,15,6,22.92,7.84a47.18,47.18,0,0,0,11.73,1.2,5.26,5.26,0,0,0,.89-.06c.48-.06,1-.16,1.61-.28-.94-1.21-1.78-2.3-2.63-3.38-.28-.37-.57-.73-.88-1.08-.82-1-1.48-2.25-2.52-2.76s-2.39-.14-3.6-.22c-3.62-.24-6.9-1.24-9.26-4.23a7.31,7.31,0,0,1-1.29-7.36.89.89,0,0,0-.34-1.24q-7.71-5.69-15.39-11.45a1,1,0,0,0-1.29-.05c-3.26,1.69-6.66,2.55-10.33,1.64a7.89,7.89,0,0,1-6.17-7.17,58,58,0,0,1,.07-5.85c-1.54-.94-3.39-2.07-5.25-3.19a95,95,0,0,1-27.11-25c-3.17-4.25-6.42-8.44-9.62-12.67a39.19,39.19,0,0,0-6.33-6.15,56,56,0,0,1-6.09-5.83A8.6,8.6,0,0,1,19,72.93c.73-1.71,2.25-2,3.63-.73.63.58,1.3,1.12,2,1.65a6.57,6.57,0,0,0,.88.52c0-2.25,0-4.5,0-6.76-.08-5-.17-10-.3-15,0-1.75-.21-3.5-.29-5.25A9.69,9.69,0,0,1,25,44.89a1.76,1.76,0,0,1,1-1.07c.58-.19,1,.29,1.07.89.24,1.3.44,2.6.73,3.89a6.5,6.5,0,0,0,.59,1.18,8.29,8.29,0,0,1,.74,1.91c.28,1.82.36,3.68.66,5.51a22.85,22.85,0,0,0,1,3.51c2.06,6.1,4.52,12,8.62,17.06A112,112,0,0,0,48.09,87c7.23,7,14.79,13.7,22.58,20.11,1.37,1.14,2.44,1.71,4.3.91a17,17,0,0,1,5.14-.86,7.68,7.68,0,0,0,4.36-1.36c3.13-2.5,6.52-4.75,9.34-7.56C98.51,93.52,104.06,90,109.2,86a3.66,3.66,0,0,1,.78-.42c.24-.1.5-.17.79-.26-1.25-2.33-2.57-4.64-2.31-7.41-1.37-.36-2.74-.66-4.07-1.08-7.16-2.27-14-5.16-19.93-9.92C76.35,60.31,70.2,52.32,67.22,42.2c-2.24-7.59-1.71-15,2.55-21.84C73.2,14.84,78.17,11.05,84,8.28a55.67,55.67,0,0,1,17-4.79,80.51,80.51,0,0,1,14.47-.73c4.2.19,8.39.55,12.58.94a134,134,0,0,1,21.12,3.79,107.68,107.68,0,0,1,25,9.52,24.85,24.85,0,0,1,5.18,3.8c4,3.87,4.09,8.66.39,12.87a33.42,33.42,0,0,1-10.06,7.47l-2,1c1.4.15,2.51.24,3.61.39,2.88.4,5.76.84,8.63,1.24a7.36,7.36,0,0,0,1.05,0,2.6,2.6,0,0,1,.79,0c2.05.66,4.08,1.39,6.15,2A73,73,0,0,1,215.15,61.3a93.21,93.21,0,0,1,23.38,31.64,53.26,53.26,0,0,1,4.58,17,57.24,57.24,0,0,1-.51,14.56,150.28,150.28,0,0,1-7.35,26.85,1.48,1.48,0,0,0,.09,1c.41.92.2,1.41-.73,1.75a1.71,1.71,0,0,0-.8.68c-.52.92-.92,1.91-1.47,2.81s-1.2,1.65-1.83,2.5a65.31,65.31,0,0,1,7.8,10.19,56.33,56.33,0,0,1,7.78,20.93c1.69,11,.24,21.75-3.38,32.22a78,78,0,0,1-12.47,23.08q1.77,1.5,3.53,3a74.06,74.06,0,0,1,11.63,12.37,11.56,11.56,0,0,1,1.75,3.49c.38,1.33-.26,2.23-1.51,2.89q-11.7,6.14-23.38,12.29c-.8.42-1.21.26-1.65-.51a81.81,81.81,0,0,0-11.18-15.65.93.93,0,0,0-1.32-.25,71.61,71.61,0,0,1-21.66,6.64,79.86,79.86,0,0,1-19.42.48,57.06,57.06,0,0,1-18.38-4.43c-8.91-4.07-15.44-10.48-18.31-20s-.85-18.11,5-25.94a34.57,34.57,0,0,1,15.63-11.82l.63-.27S151.6,208.73,151.66,208.6Zm16.6-75.25.23-.13.36-.05,4.4.19a.49.49,0,0,0,.16,0l.43.17a18.35,18.35,0,0,1,2.85,1.6c4.65,3.91,7.48,8.76,7.54,15a2.23,2.23,0,0,1-.87,2.08c-1.37.26-1.92-.88-2.45-1.69-1.19-1.82-2.11-3.81-3.24-5.69a27.81,27.81,0,0,0-2.77-4.1c-2.67-3.07-5.41-2.93-8.62-1.07-2.81,1.63-5.5,3.45-8.24,5.19l-1.45.95c4.6,4.64,9,9.3,13.65,13.67,3.69,3.46,7.59,6.71,11.6,9.79A71.93,71.93,0,0,0,198.37,179c1.86.77,3.67,1.68,5.5,2.55,2.95,1.41,5.85,2.92,8.85,4.23a25.25,25.25,0,0,1,10.36,8,55.23,55.23,0,0,1,3.13,5.26,1.61,1.61,0,0,0,0,.39,38.09,38.09,0,0,1,2.32,12,45.28,45.28,0,0,1-1.15,13.12,44,44,0,0,1-10,19.74c-6.37,7.1-14.63,10.4-23.84,11.66-2.58.35-5.21.35-7.82.51a38.84,38.84,0,0,1-11.13-1.69,39.62,39.62,0,0,1-5.09-2c-1.53-.75-3.58-.72-4.35-2.7,0-.05-.11-.07-.17-.12a11.71,11.71,0,0,1-3.79-5.81,14.1,14.1,0,0,1-.08-7.35,50.73,50.73,0,0,1,2.09-6.08c.11-.29.63-.43,1-.64a6.76,6.76,0,0,1,.63,1.1c.07.21-.07.51-.13.77a29.19,29.19,0,0,0-1.08,7.33,9.1,9.1,0,0,0,5.39,8.47,1.75,1.75,0,0,0,1.29,0,44,44,0,0,0,4-1.9c2.68-1.48,5.27-3.09,6.79-5.91a13.48,13.48,0,0,0,1.34-10,20.6,20.6,0,0,0-22.68-16,26.52,26.52,0,0,0-15.71,7.46c-5.54,5.29-8.68,11.65-7.93,19.51a21.85,21.85,0,0,0,4.26,11A27.63,27.63,0,0,0,154,261.45a59.82,59.82,0,0,0,23.46,3.08,83.12,83.12,0,0,0,14.24-1.86,57.31,57.31,0,0,0,33.75-21.32A71.54,71.54,0,0,0,237.74,216a51.7,51.7,0,0,0-4.45-40.63c-2.7-5-6.42-9.43-8.59-14.74a2.93,2.93,0,0,1-.19-2.48c.91-2.05,1.84-4.1,2.8-6.23a8,8,0,0,1-1-.54,33.31,33.31,0,0,1-4.22-3.08,3.75,3.75,0,0,1-.36-5.24,6.13,6.13,0,0,1,2.48-1.88,24.26,24.26,0,0,1,4.93-1,3.26,3.26,0,0,0,3-1.94c.58-1.46,1-3,1.44-4.56-.39-.13-.64-.22-.89-.28-3.91-.82-7.84-1.54-11.72-2.48a18.41,18.41,0,0,1-7.71-3.76c-2-1.71-2.9-4.24-1.84-6.48a13.11,13.11,0,0,1,2.75-3.81c2.26-2.16,5.17-3.16,8.12-4l13.9-4c-.67-2.69-1.29-5.15-1.87-7.61-.16-.69-.45-.76-1.12-.6-9.7,2.34-19.34,5-29.39,5.5a26.21,26.21,0,0,1-8.75-.72c-5-1.43-6.83-5.71-4.51-10.38a20.29,20.29,0,0,1,5.63-6.49,78.83,78.83,0,0,1,14.75-9.17c2.75-1.37,5.6-2.52,8.49-3.82l-5.92-6.43c-1.22.58-2.35,1.13-3.49,1.66-5.32,2.47-10.56,5.13-16.18,6.87A23.18,23.18,0,0,1,184,79a6.64,6.64,0,0,1-6-6.63,11.08,11.08,0,0,1,2.1-6.11,45.74,45.74,0,0,1,8.25-9c1.13-1,2.25-2,3.61-3.23-3.41-1.13-6.54-2.19-9.68-3.2-.91-.29-2-.85-2.74-.58s-1.18,1.42-1.73,2.21a40.56,40.56,0,0,1-6.22,7.73,6.73,6.73,0,0,1-10.21-.93,7.09,7.09,0,0,1-.77-6.2c.48-1.78,1.13-3.52,1.75-5.41-2-.06-4,0-6-.22a6.89,6.89,0,0,0-3.07.53c-1.75.59-3.5,1.22-5.26,1.81-1.95.65-2.55.43-3.6-1.3-.11-1-.08-1.94.85-2.48,1.57-.9,3.16-1.78,4.81-2.52,1.47-.67,3-1.12,4.56-1.69,5.55-2,10.95-4.4,15.71-8a28.63,28.63,0,0,0,4.43-4.09c1.41-1.64,1.16-2.71-.5-4.13a16.74,16.74,0,0,0-1.65-1.4,71.67,71.67,0,0,0-15.53-7A136.29,136.29,0,0,0,125,10.31a114.21,114.21,0,0,0-17.45-.5,65.35,65.35,0,0,0-15,2.52C86.48,14.16,81.05,17,77,21.94a17.46,17.46,0,0,0-4.14,10.83,22,22,0,0,0,1.41,9.16,46.65,46.65,0,0,0,10.4,16.54A54,54,0,0,0,95.53,67.3c3.79,2.37,7.73,4.5,11.6,6.74a11.57,11.57,0,0,0,2.92,1.65,3.21,3.21,0,0,1,2.55,2.57,23.14,23.14,0,0,0,5.52,8.86,1.23,1.23,0,0,0,1.63.4,2.1,2.1,0,0,1,2.7.44,2.62,2.62,0,0,1-.69,2.75c-1.34,1.42-2.86,2.66-4.18,4.09-2.73,3-5.34,6.07-8.07,9q-3.86,4.22-7.88,8.27c-3.94,4-8.83,7-11.92,11.83-1,1.63-2.67,2.87-3.77,4.47-1.5,2.16-2.75,4.49-4.11,6.75a28.42,28.42,0,0,0-1,4.28c-.15,2,1.39,3.18,3.38,2.86a11.65,11.65,0,0,0,6.79-4,28.17,28.17,0,0,0,4.47-7.48,14,14,0,0,0,1.05-3.59c.37-2.25,1.37-3.62,3-4a2.32,2.32,0,0,0,1.29-.85c2.07-2.91,4-5.91,6.13-8.81A47.7,47.7,0,0,1,117.39,103a55.39,55.39,0,0,0,10.08-9,6.06,6.06,0,0,1,2.17-1.51A1.62,1.62,0,0,1,132,94.1a4.44,4.44,0,0,1-.5,2.37,45.58,45.58,0,0,1-3.34,4c-.61.71-1.73,1.35-1.78,2.08s.73,1.8,1.29,2.61c2.07,3,4.22,5.93,6.29,8.93S138,120,139.84,123c2,3.21,5.36,5.23,7,8.65l.07.07c.35.53.72.48,1.24.15,1.93-1.23,3.88-2.42,5.83-3.6,2.55-1.55,5.11-3.07,7.66-4.6.18-.08.37-.15.54-.24,2.09-1.16,4.13-2.4,6.27-3.45,3.43-1.69,7-3,10.93-2.74a16,16,0,0,1,11.54,6,28.23,28.23,0,0,1,5.9,12.14c1,4.14,1.63,8.37,2.2,12.59a24.25,24.25,0,0,1-.18,5.44,2.05,2.05,0,0,1-1.88,2,2.33,2.33,0,0,1-2.4-1.41,9.51,9.51,0,0,1-.84-2c-.84-3.74-1.57-7.5-2.42-11.23a32.69,32.69,0,0,0-4.83-12,10.4,10.4,0,0,0-5.88-4.48,9.17,9.17,0,0,0-6.2.67,96,96,0,0,0-9.07,4.69c-5.88,3.47-11.8,6.9-17.47,10.69-4.26,2.85-8.16,6.23-12.2,9.4a4.61,4.61,0,0,1-3.4,1.34c-1.64-.16-3.28-.31-4.93-.35a4.64,4.64,0,0,0-2.32.39,32.84,32.84,0,0,0-8.59,6.35c-.81,1.23-1.69,2.42-2.41,3.7-.51.9,0,1.67.74,2.22a7.62,7.62,0,0,0,6,1.18c4.19-.76,7.41-3.2,10.33-6.13.18-.18.19-.54.33-.79s.26-.47.46-.54a14.06,14.06,0,0,1,1.9-.52c.57-.11,1.26-.39,1.72-.18a1.34,1.34,0,0,0,2-.65,5.09,5.09,0,0,1,.75-.79,85,85,0,0,1,12.15-10.52c5.58-4,10.75-8.63,17.32-11.06l.17,0ZM97.75,177.41l-.22-.16-.06.08.28.08.58.21c.69.37,1.36.79,2.07,1.12,4.12,1.89,8.17,4,12.4,5.59,8.84,3.39,17.78,6.51,26.67,9.76a57.29,57.29,0,0,1,20.24,12.29,2.27,2.27,0,0,0,1.31.5,47.14,47.14,0,0,1,6.21.49c11.3,2.55,18.74,9.26,21.63,20.64a18.65,18.65,0,0,1-.37,10.57,1.66,1.66,0,0,0,.52,2.13c2.75,2.32,5.47,4.69,8.25,7a1.74,1.74,0,0,0,1.41.24,30.15,30.15,0,0,0,9.5-4.66c1.61-1.23,3.08-2.65,4.68-4.05-3.14-2.12-6.07-4.06-8.95-6.06a111.27,111.27,0,0,1-13.68-11c-2.3-2.2-4.57-4.43-6.75-6.75-3-3.17-5.93-6.42-8.85-9.67-3.76-4.19-7.48-8.41-11.24-12.6-1.26-1.41-2.54-2.79-3.87-4.14q-2.82-2.87-5.73-5.65a1,1,0,0,0-.92-.12,18.08,18.08,0,0,1-9.31,2c-6.71-.19-10.94-6.13-10-12.59a10.51,10.51,0,0,1,2.28-5.19l-1.83-2-7.28,4.42a.8.8,0,0,0,.11.25A42.29,42.29,0,0,1,133,179.8a2.7,2.7,0,0,1,.2,1.51,3.54,3.54,0,0,1-3.19,2.85,36,36,0,0,1-13-.28c-4.38-.74-8.36-2.69-12.52-4.09-2.07-.7-4.12-1.46-6.17-2.19ZM172.11,54l.21-.24,3.31-4.64-7.95-1c-1-.35-1.65-.13-1.88,1-.09.41-.35.79-.46,1.2-.45,1.65-1,3.29-1.28,5a2.74,2.74,0,0,0,4.43,2.53c1.29-1.16,2.43-2.49,3.63-3.75ZM185.72,65.4h0a15,15,0,0,0-3.74,6A2.78,2.78,0,0,0,184.2,75a11.31,11.31,0,0,0,5.39-.33,71.14,71.14,0,0,0,13.69-5.18l7-3.32-1.82-1.51a63.46,63.46,0,0,0-12.71-8.58,1,1,0,0,0-.9.14c-.83.71-1.62,1.48-2.39,2.25q-3.25,3.27-6.49,6.56Zm32.14,53.29a29.92,29.92,0,0,0-2.7,2.82,1.65,1.65,0,0,0,.36,2.47,14.46,14.46,0,0,0,3.62,2.16c3.16,1,6.4,1.83,9.62,2.65,1.87.47,3.78.79,5.78,1.2.29-1.48.57-2.93.85-4.38a2.54,2.54,0,0,0,.17-.46,56.35,56.35,0,0,0,.82-12.37,7.31,7.31,0,0,0-.13-.8,10.33,10.33,0,0,0-1,.36,70.64,70.64,0,0,1-11,3.79A65,65,0,0,0,217.86,118.69ZM196.94,93.32a9.57,9.57,0,0,0-3.2,4.68c-.43,1.53-.08,2.56,1.4,3a15.39,15.39,0,0,0,5.2,1,86.33,86.33,0,0,0,11.24-1c5.59-1,11.11-2.29,16.67-3.47,1.4-.3,2.79-.63,4.32-1l-1.36-2.79c-.08-.22-.13-.44-.23-.65A85.46,85.46,0,0,0,222.12,79a1.24,1.24,0,0,0-1.86-.46,142.62,142.62,0,0,0-18.38,10.69A64.3,64.3,0,0,0,196.94,93.32Zm-31.5,70.83c-1.14,1.09-2.27,2.08-3.28,3.17a7.2,7.2,0,0,0-2.15,4.56c-.11,2.13-.11,4.3-1.24,6.25-.09.16.12.61.31.79a222,222,0,0,1,16.59,17.43c4.35,4.91,8.65,9.87,13.08,14.7a132.83,132.83,0,0,0,16,14.43c3.74,3,7.53,5.85,11.28,8.76.12-.09.19-.11.22-.16s.18-.28.26-.42a40.36,40.36,0,0,0,4-29.43,16.12,16.12,0,0,0-7.17-10.29,40.2,40.2,0,0,0-7.71-4c-2.75-1-5.25-2.63-8-3.71a83.08,83.08,0,0,1-16.88-9.11A115.47,115.47,0,0,1,165.44,164.15ZM142,135.86c-.79-1.22-1.49-2.46-2.36-3.58-1.19-1.54-2.65-2.89-3.75-4.49-2.78-4-5.36-8.2-8.13-12.23-2.19-3.19-4.43-6.31-5.61-10.12a50.31,50.31,0,0,0-8.43,7c-3.63,4.09-7.2,8.23-10.78,12.36a.93.93,0,0,0-.19.77,7.74,7.74,0,0,1,0,4.69,1,1,0,0,0,.46,1.15c6.39,4.9,12.76,9.83,19.15,14.72a1.37,1.37,0,0,0,1,.16c2-.44,4-1,6-1.36a5.38,5.38,0,0,0,3.67-1.72,22.84,22.84,0,0,1,3.18-2.86C138.13,138.86,140.08,137.37,142,135.86Zm-78.55-16c.49-1.3.85-2.54,1.41-3.69s1.31-2.27,2-3.46c-1.26-1.09-2.55-2.18-3.81-3.29-4.45-3.92-9-7.74-13.29-11.81-3.54-3.34-6.84-6.94-10.16-10.5a39,39,0,0,1-6.7-9.46c-1-2-1.89-4.12-2.82-6.15-.09,1.65-.16,3.33-.28,5-.15,2-1.08,2.69-3,2.19-1.29-.34-2.56-.78-3.92-1.21.07.19.1.31.15.41,1.09,2.21,3,3.58,5,4.89a41.31,41.31,0,0,1,9.36,8.08c4.33,5.35,8.55,10.79,13.06,16,3.31,3.82,7,7.33,10.54,11C61.72,118.54,62.63,119.15,63.46,119.84ZM113.7,89.43c-1.46,1.23-2.87,2.54-4.4,3.68-2.23,1.66-4.76,3-6.78,4.83a153.83,153.83,0,0,1-12.87,10.77c-1.84,1.36-3.63,2.88-6,3.25-1.75.29-3.57.12-5.34.33-1.32.16-2.91.22-3.87,1a12.14,12.14,0,0,0-4.4,7c-.48,2.32,1.28,3.94,3.62,3.41,3.88-.88,6.81-3.26,9.49-6a15.34,15.34,0,0,1,2.21-2,2.86,2.86,0,0,1,3.75.12,8.7,8.7,0,0,1,1.1,1.73c2-2,4-4,6-6,2.37-2.36,4.86-4.62,7.12-7.09,3-3.22,5.72-6.6,8.59-9.89,1.06-1.22,2.18-2.38,3.32-3.63Zm31.4,89a12.77,12.77,0,0,0,7.19-3.09,2,2,0,0,0,.61-1.09c.14-.84.07-1.72.24-2.56a27.21,27.21,0,0,1,1.14-4.67c1.14-3,3.45-5.05,5.81-7.05.39-.33.79-.61.32-1.21a.79.79,0,0,0-1.26-.17c-.55.37-1.12.7-1.69,1-3.93,2.33-7.88,4.62-11.78,7a26.09,26.09,0,0,0-4.43,3.11,5.18,5.18,0,0,0-1.07,5.89C140.91,177.54,142.32,178.4,145.1,178.4Zm-28.59-28.49L99.88,137.43c-1,1.44-1.78,2.68-2.65,3.88-.37.51-.27.74.2,1.11q6.84,5.55,13.64,11.17c.44.36.68.32,1.09,0C113.52,152.37,114.93,151.23,116.51,149.91Zm35.86-1.25c-4.1,2.39-13.1,9.32-14.44,11.1l2.95,3.5,15.64-8.93Zm37.45,101.42-5.14-4.26-7.17,4.42A39.79,39.79,0,0,0,189.82,250.08Zm39-100.91c.76-2.26,1.4-4.18,2.06-6.16-1.54.27-3,.48-4.38.78a4.84,4.84,0,0,0-1.54.64c-.91.58-1,1.23-.19,1.9C226,147.31,227.29,148.14,228.77,149.17ZM86.89,171.43c-.26,1,0,1.42.65,1.63a18,18,0,0,1,1.83.75l5,2.14.11-.23Z" transform="translate(-18.17 -2.69)"/><path class="cls-2" d="M173.41,133.41a.49.49,0,0,1-.16,0,6.18,6.18,0,0,0-4.4-.19l-.36.05-.23,0-.41.18-.17,0c-1,.22-2,.37-3,.68a47.34,47.34,0,0,0-13,6.61c-4.64,3.33-9.09,6.93-13.63,10.41a9.89,9.89,0,0,1-4.49,2.39,9.88,9.88,0,0,0-2.54.8c-1.9.86-3.75,1.82-5.64,2.7a13.33,13.33,0,0,1-7,1.49c-.75-.08-1.63,0-2-1a32.84,32.84,0,0,1,8.59-6.35,4.64,4.64,0,0,1,2.32-.39c1.65,0,3.29.19,4.93.35a4.61,4.61,0,0,0,3.4-1.34c4-3.17,7.94-6.55,12.2-9.4,5.67-3.79,11.59-7.22,17.47-10.69a96,96,0,0,1,9.07-4.69,9.17,9.17,0,0,1,6.2-.67,10.4,10.4,0,0,1,5.88,4.48,32.69,32.69,0,0,1,4.83,12c.85,3.73,1.58,7.49,2.42,11.23a9.51,9.51,0,0,0,.84,2,2.33,2.33,0,0,0,2.4,1.41,2.05,2.05,0,0,0,1.88-2,24.25,24.25,0,0,0,.18-5.44c-.57-4.22-1.23-8.45-2.2-12.59a28.23,28.23,0,0,0-5.9-12.14,16,16,0,0,0-11.54-6c-4-.24-7.5,1.05-10.93,2.74-2.14,1-4.18,2.29-6.27,3.45-.17.09-.36.16-.54.24a94.62,94.62,0,0,1-8.18-6.22,109,109,0,0,1-8.67-9.42A32,32,0,0,1,139,98.48c-.68-1.85-.88-3.85-1.45-5.75-.63-2.13-1.83-3.56-4.33-3.4a11.29,11.29,0,0,0-6.55,2.53c-3.38,2.76-6.63,5.68-9.85,8.63s-6.38,6.18-9.64,9.19c-4.48,4.15-7.68,9.23-11,14.31-2.19,3.41-4.22,7-7.18,9.84-2.44,2.36-4.23,2.72-7.23,1.34,1.36-2.26,2.61-4.59,4.11-6.75,1.1-1.6,2.73-2.84,3.77-4.47,3.09-4.87,8-7.86,11.92-11.83q4-4.05,7.88-8.27c2.73-3,5.34-6.07,8.07-9,1.32-1.43,2.84-2.67,4.18-4.09a2.62,2.62,0,0,0,.69-2.75c.45-.22.9-.43,1.33-.67a8.56,8.56,0,0,0,3.73-3.73c.88-1.87,0-4.57-2-6.33a33.45,33.45,0,0,0-9.16-5.66c-3.2-1.37-6.43-2.65-9.59-4.11a62.46,62.46,0,0,1-12.88-8c-2.25-1.79-4.42-3.69-6.48-5.69a45.36,45.36,0,0,1-4.61-5.19c-2.23-3-4.38-6-6.37-9.09-1.37-2.13-2.4-4.48-3.58-6.74A17.46,17.46,0,0,1,77,21.94c4-5,9.46-7.78,15.46-9.61a65.35,65.35,0,0,1,15-2.52,114.21,114.21,0,0,1,17.45.5,136.29,136.29,0,0,1,32.12,6.85,71.67,71.67,0,0,1,15.53,7,16.74,16.74,0,0,1,1.65,1.4c-1.77,1.15-3.48,2.41-5.32,3.44A64.21,64.21,0,0,1,148.29,36a16.05,16.05,0,0,0-6.67,2.37c-1.13.79-2.1,1.7-2.06,3.29.08,3.39,2.32,5.21,4.84,6.85,1,1.73,1.65,1.95,3.6,1.3,1.76-.59,3.51-1.22,5.26-1.81a6.89,6.89,0,0,1,3.07-.53c2,.2,4,.16,6,.22-.62,1.89-1.27,3.63-1.75,5.41a7.09,7.09,0,0,0,.77,6.2,6.73,6.73,0,0,0,10.21.93,40.56,40.56,0,0,0,6.22-7.73c.55-.79,1-1.94,1.73-2.21s1.83.29,2.74.58c3.14,1,6.27,2.07,9.68,3.2-1.36,1.22-2.48,2.23-3.61,3.23a45.74,45.74,0,0,0-8.25,9,11.08,11.08,0,0,0-2.1,6.11A6.64,6.64,0,0,0,184,79a23.18,23.18,0,0,0,9.75-1.33c5.62-1.74,10.86-4.4,16.18-6.87,1.14-.53,2.27-1.08,3.49-1.66l5.92,6.43c-2.89,1.3-5.74,2.45-8.49,3.82a78.83,78.83,0,0,0-14.75,9.17,20.29,20.29,0,0,0-5.63,6.49c-2.32,4.67-.49,9,4.51,10.38a26.21,26.21,0,0,0,8.75.72c10.05-.54,19.69-3.16,29.39-5.5.67-.16,1-.09,1.12.6.58,2.46,1.2,4.92,1.87,7.61l-13.9,4c-3,.85-5.86,1.85-8.12,4a13.11,13.11,0,0,0-2.75,3.81c-1.06,2.24-.19,4.77,1.84,6.48a18.41,18.41,0,0,0,7.71,3.76c3.88.94,7.81,1.66,11.72,2.48.25.06.5.15.89.28-.48,1.56-.86,3.1-1.44,4.56a3.26,3.26,0,0,1-3,1.94,24.26,24.26,0,0,0-4.93,1,6.13,6.13,0,0,0-2.48,1.88,3.75,3.75,0,0,0,.36,5.24,33.31,33.31,0,0,0,4.22,3.08,8,8,0,0,0,1,.54c-1,2.13-1.89,4.18-2.8,6.23a2.93,2.93,0,0,0,.19,2.48c2.17,5.31,5.89,9.72,8.59,14.74A51.7,51.7,0,0,1,237.74,216a71.54,71.54,0,0,1-12.31,25.32,57.31,57.31,0,0,1-33.75,21.32,83.12,83.12,0,0,1-14.24,1.86A59.82,59.82,0,0,1,154,261.45a27.63,27.63,0,0,1-13.52-9.57,21.85,21.85,0,0,1-4.26-11c-.75-7.86,2.39-14.22,7.93-19.51a26.52,26.52,0,0,1,15.71-7.46,20.6,20.6,0,0,1,22.68,16,13.48,13.48,0,0,1-1.34,10,3.85,3.85,0,0,1-.16-.65,34.24,34.24,0,0,0-.23-3.66c-1.09-6-4.9-9.24-10.68-9.75A16.15,16.15,0,0,0,156.45,231a10.29,10.29,0,0,0-2.78,10.25c1.91,7,6.46,11.71,13.19,14.32a32.53,32.53,0,0,0,13.59,1.73,49.25,49.25,0,0,0,5.35-.87c2.61-.16,5.24-.16,7.82-.51,9.21-1.26,17.47-4.56,23.84-11.66a44,44,0,0,0,10-19.74,45.28,45.28,0,0,0,1.15-13.12,38.09,38.09,0,0,0-2.32-12,1.61,1.61,0,0,1,0-.39,6.61,6.61,0,0,0-.11-.88,43.91,43.91,0,0,0-4-9.72,28.94,28.94,0,0,0-10.75-11c-4.21-2.46-8.53-4.7-12.86-6.94a32.24,32.24,0,0,1-10.79-8.45,20.23,20.23,0,0,1-4.38-9.65,2.23,2.23,0,0,0,.87-2.08c-.06-6.24-2.89-11.09-7.54-15a18.35,18.35,0,0,0-2.85-1.6ZM116.25,38.18a12.92,12.92,0,0,0,6.51-1.47c4.85-2.54,7.37-8.11,5.87-13A11.65,11.65,0,0,0,119,16a11.86,11.86,0,0,1-2.54-.33,6,6,0,0,0-4.89.4A14.15,14.15,0,0,0,105,24.26a9.58,9.58,0,0,0,.13,6.63C106.84,35.66,110.72,38.18,116.25,38.18Zm-3.33,14.91c1.07-.14,2.15-.27,3.23-.44a7,7,0,0,0,1.33-.38,4.48,4.48,0,0,0,2.77-6,7,7,0,0,0-6.11-4.86c-1.8-.21-3.65-.06-5.45-.28a3.58,3.58,0,0,0-3,.94,4.8,4.8,0,0,0-1.16,6.05C106.22,51.58,109.32,52.73,112.92,53.09Z" transform="translate(-18.17 -2.69)"/><path class="cls-3" d="M98.35,177.6c2.05.73,4.1,1.49,6.17,2.19,4.16,1.4,8.14,3.35,12.52,4.09a36,36,0,0,0,13,.28,3.54,3.54,0,0,0,3.19-2.85,2.7,2.7,0,0,0-.2-1.51,42.29,42.29,0,0,0-6.25-9.75.8.8,0,0,1-.11-.25l7.28-4.42,1.83,2a10.51,10.51,0,0,0-2.28,5.19c-.9,6.46,3.33,12.4,10,12.59a18.08,18.08,0,0,0,9.31-2,1,1,0,0,1,.92.12q2.91,2.79,5.73,5.65c1.33,1.35,2.61,2.73,3.87,4.14,3.76,4.19,7.48,8.41,11.24,12.6,2.92,3.25,5.85,6.5,8.85,9.67,2.18,2.32,4.45,4.55,6.75,6.75a111.27,111.27,0,0,0,13.68,11c2.88,2,5.81,3.94,8.95,6.06-1.6,1.4-3.07,2.82-4.68,4.05a30.15,30.15,0,0,1-9.5,4.66,1.74,1.74,0,0,1-1.41-.24c-2.78-2.3-5.5-4.67-8.25-7a1.66,1.66,0,0,1-.52-2.13,18.65,18.65,0,0,0,.37-10.57c-2.89-11.38-10.33-18.09-21.63-20.64a47.14,47.14,0,0,0-6.21-.49,2.27,2.27,0,0,1-1.31-.5,57.29,57.29,0,0,0-20.24-12.29c-8.89-3.25-17.83-6.37-26.67-9.76-4.23-1.61-8.28-3.7-12.4-5.59-.71-.33-1.38-.75-2.07-1.12Z" transform="translate(-18.17 -2.69)"/><path class="cls-4" d="M183.36,152.26a20.23,20.23,0,0,0,4.38,9.65,32.24,32.24,0,0,0,10.79,8.45c4.33,2.24,8.65,4.48,12.86,6.94a28.94,28.94,0,0,1,10.75,11,43.91,43.91,0,0,1,4,9.72,6.61,6.61,0,0,1,.11.88,55.23,55.23,0,0,0-3.13-5.26,25.25,25.25,0,0,0-10.36-8c-3-1.31-5.9-2.82-8.85-4.23-1.83-.87-3.64-1.78-5.5-2.55a71.93,71.93,0,0,1-16.53-9.64c-4-3.08-7.91-6.33-11.6-9.79-4.66-4.37-9.05-9-13.65-13.67l1.45-.95c2.74-1.74,5.43-3.56,8.24-5.19,3.21-1.86,5.95-2,8.62,1.07a27.81,27.81,0,0,1,2.77,4.1c1.13,1.88,2.05,3.87,3.24,5.69C181.44,151.38,182,152.52,183.36,152.26Z" transform="translate(-18.17 -2.69)"/><path class="cls-4" d="M81.83,135.17c3,1.38,4.79,1,7.23-1.34,3-2.87,5-6.43,7.18-9.84,3.27-5.08,6.47-10.16,11-14.31,3.26-3,6.37-6.19,9.64-9.19s6.47-5.87,9.85-8.63a11.29,11.29,0,0,1,6.55-2.53c2.5-.16,3.7,1.27,4.33,3.4.57,1.9.77,3.9,1.45,5.75a32,32,0,0,0,5.83,9.52,109,109,0,0,0,8.67,9.42,94.62,94.62,0,0,0,8.18,6.22c-2.55,1.53-5.11,3-7.66,4.6-1.95,1.18-3.9,2.37-5.83,3.6-.52.33-.89.38-1.24-.15l-.07-.07c-1.69-3.42-5.08-5.44-7-8.65-1.85-3-3.89-5.92-5.9-8.84s-4.22-5.94-6.29-8.93c-.56-.81-1.35-1.77-1.29-2.61s1.17-1.37,1.78-2.08a45.58,45.58,0,0,0,3.34-4,4.44,4.44,0,0,0,.5-2.37,1.62,1.62,0,0,0-2.34-1.56,6.06,6.06,0,0,0-2.17,1.51,55.39,55.39,0,0,1-10.08,9A47.7,47.7,0,0,0,107,113.58c-2.1,2.9-4.06,5.9-6.13,8.81a2.32,2.32,0,0,1-1.29.85c-1.64.4-2.64,1.77-3,4a14,14,0,0,1-1.05,3.59A28.17,28.17,0,0,1,91,138.33a11.65,11.65,0,0,1-6.79,4c-2,.32-3.53-.87-3.38-2.86A28.42,28.42,0,0,1,81.83,135.17Z" transform="translate(-18.17 -2.69)"/><path class="cls-4" d="M185.8,256.38a49.25,49.25,0,0,1-5.35.87,32.53,32.53,0,0,1-13.59-1.73c-6.73-2.61-11.28-7.32-13.19-14.32A10.29,10.29,0,0,1,156.45,231a16.15,16.15,0,0,1,13.66-5.08c5.78.51,9.59,3.8,10.68,9.75a34.24,34.24,0,0,1,.23,3.66,3.85,3.85,0,0,0,.16.65c-1.52,2.82-4.11,4.43-6.79,5.91a44,44,0,0,1-4,1.9,1.75,1.75,0,0,1-1.29,0,9.1,9.1,0,0,1-5.39-8.47,29.19,29.19,0,0,1,1.08-7.33c.06-.26.2-.56.13-.77a6.76,6.76,0,0,0-.63-1.1c-.33.21-.85.35-1,.64a50.73,50.73,0,0,0-2.09,6.08,14.1,14.1,0,0,0,.08,7.35,11.71,11.71,0,0,0,3.79,5.81c.06.05.15.07.17.12.77,2,2.82,1.95,4.35,2.7a39.62,39.62,0,0,0,5.09,2A38.84,38.84,0,0,0,185.8,256.38Z" transform="translate(-18.17 -2.69)"/><path class="cls-4" d="M72.88,32.77c1.18,2.26,2.21,4.61,3.58,6.74,2,3.12,4.14,6.14,6.37,9.09a45.36,45.36,0,0,0,4.61,5.19c2.06,2,4.23,3.9,6.48,5.69a62.46,62.46,0,0,0,12.88,8c3.16,1.46,6.39,2.74,9.59,4.11a33.45,33.45,0,0,1,9.16,5.66c2,1.76,2.84,4.46,2,6.33a8.56,8.56,0,0,1-3.73,3.73c-.43.24-.88.45-1.33.67a2.1,2.1,0,0,0-2.7-.44,1.23,1.23,0,0,1-1.63-.4,23.14,23.14,0,0,1-5.52-8.86,3.21,3.21,0,0,0-2.55-2.57A11.57,11.57,0,0,1,107.13,74c-3.87-2.24-7.81-4.37-11.6-6.74a54,54,0,0,1-10.84-8.83,46.65,46.65,0,0,1-10.4-16.54A22,22,0,0,1,72.88,32.77Z" transform="translate(-18.17 -2.69)"/><path class="cls-5" d="M196.94,93.32a64.3,64.3,0,0,1,4.94-4.13A142.62,142.62,0,0,1,220.26,78.5a1.24,1.24,0,0,1,1.86.46A85.46,85.46,0,0,1,231,93.09c.1.21.15.43.23.65-.19.05-.38.12-.57.16-7.15,1.55-14.24,3.41-21.55,4a64.06,64.06,0,0,1-7.59.16,10.16,10.16,0,0,1-3.41-.91A1.92,1.92,0,0,1,196.74,95C196.83,94.43,196.87,93.87,196.94,93.32Z" transform="translate(-18.17 -2.69)"/><path class="cls-3" d="M63.46,119.84c-.83-.69-1.74-1.3-2.49-2.06-3.55-3.62-7.23-7.13-10.54-11-4.51-5.2-8.73-10.64-13.06-16A41.31,41.31,0,0,0,28,82.76c-2-1.31-3.89-2.68-5-4.89-.05-.1-.08-.22-.15-.41,1.36.43,2.63.87,3.92,1.21,1.95.5,2.88-.18,3-2.19.12-1.67.19-3.35.28-5,.93,2,1.83,4.12,2.82,6.15a39,39,0,0,0,6.7,9.46c3.32,3.56,6.62,7.16,10.16,10.5,4.31,4.07,8.84,7.89,13.29,11.81,1.26,1.11,2.55,2.2,3.81,3.29-.71,1.19-1.46,2.28-2,3.46S64,118.54,63.46,119.84Z" transform="translate(-18.17 -2.69)"/><path class="cls-6" d="M113.7,89.43l1.62,1.46c-1.14,1.25-2.26,2.41-3.32,3.63-2.87,3.29-5.64,6.67-8.59,9.89-2.26,2.47-4.75,4.73-7.12,7.09-2,2-4.06,4.07-6,6a8.7,8.7,0,0,0-1.1-1.73,2.86,2.86,0,0,0-3.75-.12,15.34,15.34,0,0,0-2.21,2c-2.68,2.77-5.61,5.15-9.49,6-2.34.53-4.1-1.09-3.62-3.41a12.14,12.14,0,0,1,4.4-7c1-.76,2.55-.82,3.87-1,1.77-.21,3.59,0,5.34-.33,2.32-.37,4.11-1.89,6-3.25a153.83,153.83,0,0,0,12.87-10.77c2-1.87,4.55-3.17,6.78-4.83C110.83,92,112.24,90.66,113.7,89.43Z" transform="translate(-18.17 -2.69)"/><path class="cls-4" d="M144.4,48.49c-2.52-1.64-4.76-3.46-4.84-6.85,0-1.59.93-2.5,2.06-3.29A16.05,16.05,0,0,1,148.29,36,64.21,64.21,0,0,0,168.94,29c1.84-1,3.55-2.29,5.32-3.44,1.66,1.42,1.91,2.49.5,4.13a28.63,28.63,0,0,1-4.43,4.09c-4.76,3.59-10.16,5.94-15.71,8-1.52.57-3.09,1-4.56,1.69-1.65.74-3.24,1.62-4.81,2.52C144.32,46.55,144.29,47.53,144.4,48.49Z" transform="translate(-18.17 -2.69)"/><path class="cls-5" d="M186,65.06q3.24-3.29,6.49-6.56c.77-.77,1.56-1.54,2.39-2.25a1,1,0,0,1,.9-.14,63.46,63.46,0,0,1,12.71,8.58c-.49.25-1,.55-1.48.76-4,1.63-8,3.38-12.05,4.82a19.81,19.81,0,0,1-6.19,1.09c-3.37.06-4.61-2-3.26-5.14a5.62,5.62,0,0,0,.22-.83h0Z" transform="translate(-18.17 -2.69)"/><path class="cls-7" d="M116.46,157.48c.33,1,1.21.92,2,1a13.33,13.33,0,0,0,7-1.49c1.89-.88,3.74-1.84,5.64-2.7a9.88,9.88,0,0,1,2.54-.8,9.89,9.89,0,0,0,4.49-2.39c4.54-3.48,9-7.08,13.63-10.41a47.34,47.34,0,0,1,13-6.61c1-.31,2-.46,3-.68-6.57,2.43-11.74,7.08-17.32,11.06A85,85,0,0,0,138.21,155a5.09,5.09,0,0,0-.75.79,1.34,1.34,0,0,1-2,.65c-.46-.21-1.15.07-1.72.18a14.06,14.06,0,0,0-1.9.52c-.2.07-.35.33-.46.54s-.15.61-.33.79c-2.92,2.93-6.14,5.37-10.33,6.13a7.62,7.62,0,0,1-6-1.18c-.77-.55-1.25-1.32-.74-2.22C114.77,159.9,115.65,158.71,116.46,157.48Z" transform="translate(-18.17 -2.69)"/><path class="cls-6" d="M145.1,178.4c-2.78,0-4.19-.86-4.92-2.8a5.18,5.18,0,0,1,1.07-5.89,26.09,26.09,0,0,1,4.43-3.11c3.9-2.38,7.85-4.67,11.78-7,.57-.34,1.14-.67,1.69-1a.79.79,0,0,1,1.26.17c.47.6.07.88-.32,1.21-2.36,2-4.67,4.09-5.81,7.05a27.21,27.21,0,0,0-1.14,4.67c-.17.84-.1,1.72-.24,2.56a2,2,0,0,1-.61,1.09A12.77,12.77,0,0,1,145.1,178.4Z" transform="translate(-18.17 -2.69)"/><path class="cls-8" d="M217.86,118.69a65,65,0,0,1,6.42-2.56,70.64,70.64,0,0,0,11-3.79,10.33,10.33,0,0,1,1-.36,7.31,7.31,0,0,1,.13.8,56.35,56.35,0,0,1-.82,12.37,2.54,2.54,0,0,1-.17.46c-.35,0-.72-.06-1.07-.13-1.74-.35-3.49-.67-5.22-1.07a33.8,33.8,0,0,1-8.53-2.83C219.36,120.93,218,120.34,217.86,118.69Z" transform="translate(-18.17 -2.69)"/><path class="cls-9" d="M196.94,93.32c-.07.55-.11,1.11-.2,1.66a1.92,1.92,0,0,0,1.35,2.18,10.16,10.16,0,0,0,3.41.91,64.06,64.06,0,0,0,7.59-.16c7.31-.6,14.4-2.46,21.55-4,.19,0,.38-.11.57-.16l1.36,2.79c-1.53.34-2.92.67-4.32,1-5.56,1.18-11.08,2.5-16.67,3.47a86.33,86.33,0,0,1-11.24,1,15.39,15.39,0,0,1-5.2-1c-1.48-.48-1.83-1.51-1.4-3A9.57,9.57,0,0,1,196.94,93.32Z" transform="translate(-18.17 -2.69)"/><path class="cls-3" d="M116.51,149.91c-1.58,1.32-3,2.46-4.35,3.65-.41.35-.65.39-1.09,0q-6.79-5.61-13.64-11.17c-.47-.37-.57-.6-.2-1.11.87-1.2,1.67-2.44,2.65-3.88Z" transform="translate(-18.17 -2.69)"/><path class="cls-9" d="M217.86,118.69c.17,1.65,1.5,2.24,2.71,2.89a33.8,33.8,0,0,0,8.53,2.83c1.73.4,3.48.72,5.22,1.07.35.07.72.09,1.07.13l-.85,4.38c-2-.41-3.91-.73-5.78-1.2-3.22-.82-6.46-1.62-9.62-2.65a14.46,14.46,0,0,1-3.62-2.16,1.65,1.65,0,0,1-.36-2.47A29.92,29.92,0,0,1,217.86,118.69Z" transform="translate(-18.17 -2.69)"/><path class="cls-10" d="M185.72,65.39a5.62,5.62,0,0,1-.22.83c-1.35,3.13-.11,5.2,3.26,5.14A19.81,19.81,0,0,0,195,70.27c4.07-1.44,8-3.19,12.05-4.82.51-.21,1-.51,1.48-.76l1.82,1.51-7,3.32a71.14,71.14,0,0,1-13.69,5.18,11.31,11.31,0,0,1-5.39.33A2.78,2.78,0,0,1,182,71.38,15,15,0,0,1,185.72,65.39Z" transform="translate(-18.17 -2.69)"/><path class="cls-8" d="M167.68,48l7.95,1-3.31,4.64-.21.24v0a2.21,2.21,0,0,0-.65.12,2.9,2.9,0,0,1-3.63-.44,3.21,3.21,0,0,1-.68-3.12C167.31,49.7,167.5,48.87,167.68,48Z" transform="translate(-18.17 -2.69)"/><path class="cls-10" d="M167.68,48c-.18.83-.37,1.66-.52,2.5a3.21,3.21,0,0,0,.68,3.12,2.9,2.9,0,0,0,3.63.44,2.21,2.21,0,0,1,.65-.12c-1.2,1.26-2.34,2.59-3.63,3.75a2.74,2.74,0,0,1-4.43-2.53c.32-1.68.83-3.32,1.28-5,.11-.41.37-.79.46-1.2C166,47.91,166.69,47.69,167.68,48Z" transform="translate(-18.17 -2.69)"/><path class="cls-11" d="M228.77,149.17c-1.48-1-2.82-1.86-4.05-2.84-.83-.67-.72-1.32.19-1.9a4.84,4.84,0,0,1,1.54-.64c1.41-.3,2.84-.51,4.38-.78C230.17,145,229.53,146.91,228.77,149.17Z" transform="translate(-18.17 -2.69)"/><path class="cls-12" d="M86.89,171.43l7.63,4.29-.11.23-5-2.14a18,18,0,0,0-1.83-.75C86.85,172.85,86.63,172.41,86.89,171.43Z" transform="translate(-18.17 -2.69)"/><path class="cls-6" d="M168.85,133.17a6.18,6.18,0,0,1,4.4.19Z" transform="translate(-18.17 -2.69)"/><path class="cls-3" d="M98.33,177.62l-.58-.21h0l.6.19Z" transform="translate(-18.17 -2.69)"/><path class="cls-6" d="M173.41,133.41l.43.17Z" transform="translate(-18.17 -2.69)"/><path class="cls-7" d="M167.85,133.37l.41-.18v.16Z" transform="translate(-18.17 -2.69)"/><path class="cls-3" d="M97.75,177.41l-.28-.08.06-.08.22.16Z" transform="translate(-18.17 -2.69)"/><path class="cls-10" d="M186,65.06l-.27.34Z" transform="translate(-18.17 -2.69)"/><path class="cls-10" d="M172.11,54l.21-.24Z" transform="translate(-18.17 -2.69)"/><path class="cls-6" d="M168.26,133.35v-.16l.23,0Z" transform="translate(-18.17 -2.69)"/><path class="cls-13" d="M116.25,38.18c-5.53,0-9.41-2.52-11.16-7.29a9.58,9.58,0,0,1-.13-6.63,14.15,14.15,0,0,1,6.59-8.15,6,6,0,0,1,4.89-.4A11.86,11.86,0,0,0,119,16a11.65,11.65,0,0,1,9.65,7.71c1.5,4.85-1,10.42-5.87,13A12.92,12.92,0,0,1,116.25,38.18Z" transform="translate(-18.17 -2.69)"/><path class="cls-14" d="M112.92,53.09c-3.6-.36-6.7-1.51-8.39-5A4.8,4.8,0,0,1,105.69,42a3.58,3.58,0,0,1,3-.94c1.8.22,3.65.07,5.45.28a7,7,0,0,1,6.11,4.86,4.48,4.48,0,0,1-2.77,6,7,7,0,0,1-1.33.38C115.07,52.82,114,53,112.92,53.09Zm1-3.42c.63-.07,1.33-.11,2-.24,1.91-.39,2.27-1.2,1.42-3a4.69,4.69,0,0,0-3.64-2.63c-1.53-.23-3.08-1.15-4.66.43-1.41,1.43-1.66,2.27-.14,3.68S112.09,49.51,114,49.67Z" transform="translate(-18.17 -2.69)"/><path class="cls-15" d="M114,49.67c-1.86-.16-3.62-.42-5-1.73s-1.27-2.25.14-3.68c1.58-1.58,3.13-.66,4.66-.43a4.69,4.69,0,0,1,3.64,2.63c.85,1.77.49,2.58-1.42,3C115.28,49.56,114.58,49.6,114,49.67Z" transform="translate(-18.17 -2.69)"/></svg>